<?xml version="1.0" encoding="utf-8" standalone="no"?>
<!DOCTYPE svg PUBLIC "-//W3C//DTD SVG 1.1//EN"
  "http://www.w3.org/Graphics/SVG/1.1/DTD/svg11.dtd">
<svg xmlns:xlink="http://www.w3.org/1999/xlink" width="767.7pt" height="448.053656pt" viewBox="0 0 767.7 448.053656" xmlns="http://www.w3.org/2000/svg" version="1.1">
 <metadata>
  <rdf:RDF xmlns:dc="http://purl.org/dc/elements/1.1/" xmlns:cc="http://creativecommons.org/ns#" xmlns:rdf="http://www.w3.org/1999/02/22-rdf-syntax-ns#">
   <cc:Work>
    <dc:type rdf:resource="http://purl.org/dc/dcmitype/StillImage"/>
    <dc:date>2026-04-25T22:00:15.903147</dc:date>
    <dc:format>image/svg+xml</dc:format>
    <dc:creator>
     <cc:Agent>
      <dc:title>Matplotlib v3.10.8, https://matplotlib.org/</dc:title>
     </cc:Agent>
    </dc:creator>
   </cc:Work>
  </rdf:RDF>
 </metadata>
 <defs>
  <style type="text/css">*{stroke-linejoin: round; stroke-linecap: butt}</style>
 </defs>
 <g id="figure_1">
  <g id="patch_1">
   <path d="M 0 448.053656
L 767.7 448.053656
L 767.7 0
L 0 0
z
" style="fill: #ffffff"/>
  </g>
  <g id="axes_1">
   <g id="patch_2">
    <path d="M 115.571725 97.125656
Q 124.597363 97.125656 132.504966 97.125656
" clip-path="url(#p76a0b1f827)" style="fill: none; stroke: #333333; stroke-linecap: round"/>
    <path d="M 127.704966 94.725656
L 132.504966 97.125656
L 127.704966 99.525656
z
" clip-path="url(#p76a0b1f827)" style="fill: #333333; stroke: #333333; stroke-linecap: round"/>
   </g>
   <g id="patch_3">
    <path d="M 201.758274 85.858654
Q 217.535018 80.494335 232.253242 75.489927
" clip-path="url(#p76a0b1f827)" style="fill: none; stroke: #333333; stroke-linecap: round"/>
    <path d="M 226.936157 74.762874
L 232.253242 75.489927
L 228.481348 79.307364
z
" clip-path="url(#p76a0b1f827)" style="fill: #333333; stroke: #333333; stroke-linecap: round"/>
   </g>
   <g id="patch_4">
    <path d="M 301.453185 63.861656
Q 317.815373 63.861656 333.059527 63.861656
" clip-path="url(#p76a0b1f827)" style="fill: none; stroke: #333333; stroke-linecap: round"/>
    <path d="M 328.259527 61.461656
L 333.059527 63.861656
L 328.259527 66.261656
z
" clip-path="url(#p76a0b1f827)" style="fill: #333333; stroke: #333333; stroke-linecap: round"/>
   </g>
   <g id="patch_5">
    <path d="M 295.829266 82.887349
Q 317.813162 97.125139 338.858642 110.755167
" clip-path="url(#p76a0b1f827)" style="fill: none; stroke: #333333; stroke-linecap: round"/>
    <path d="M 336.134423 106.131465
L 338.858642 110.755167
L 333.525148 110.160321
z
" clip-path="url(#p76a0b1f827)" style="fill: #333333; stroke: #333333; stroke-linecap: round"/>
   </g>
   <g id="patch_6">
    <path d="M 403.724494 69.455567
Q 420.536949 72.177698 436.245743 74.721134
" clip-path="url(#p76a0b1f827)" style="fill: none; stroke: #333333; stroke-linecap: round"/>
    <path d="M 431.891041 71.584803
L 436.245743 74.721134
L 431.123857 76.323096
z
" clip-path="url(#p76a0b1f827)" style="fill: #333333; stroke: #333333; stroke-linecap: round"/>
   </g>
   <g id="patch_7">
    <path d="M 301.34033 66.68602
Q 369.175906 72.177703 435.897094 77.57917
" clip-path="url(#p76a0b1f827)" style="fill: none; stroke: #333333; stroke-linecap: round"/>
    <path d="M 431.306406 74.799676
L 435.897094 77.57917
L 430.919086 79.584023
z
" clip-path="url(#p76a0b1f827)" style="fill: #333333; stroke: #333333; stroke-linecap: round"/>
   </g>
   <g id="patch_8">
    <path d="M 197.560562 116.805097
Q 217.534585 130.388005 236.584088 143.342213
" clip-path="url(#p76a0b1f827)" style="fill: none; stroke: #333333; stroke-linecap: round"/>
    <path d="M 233.964477 138.65845
L 236.584088 143.342213
L 231.265311 142.627645
z
" clip-path="url(#p76a0b1f827)" style="fill: #333333; stroke: #333333; stroke-linecap: round"/>
   </g>
   <g id="patch_9">
    <path d="M 300.211188 154.396878
Q 418.094483 122.072676 534.899546 90.044131
" clip-path="url(#p76a0b1f827)" style="fill: none; stroke: #333333; stroke-linecap: round"/>
    <path d="M 529.635755 88.998898
L 534.899546 90.044131
L 530.905085 93.628024
z
" clip-path="url(#p76a0b1f827)" style="fill: #333333; stroke: #333333; stroke-linecap: round"/>
   </g>
   <g id="patch_10">
    <path d="M 301.34033 166.47802
Q 369.175906 171.969703 435.897094 177.37117
" clip-path="url(#p76a0b1f827)" style="fill: none; stroke: #333333; stroke-linecap: round"/>
    <path d="M 431.306406 174.591676
L 435.897094 177.37117
L 430.919086 179.376023
z
" clip-path="url(#p76a0b1f827)" style="fill: #333333; stroke: #333333; stroke-linecap: round"/>
   </g>
   <g id="patch_11">
    <path d="M 506.897893 80.493656
Q 520.8129 80.493656 533.609873 80.493656
" clip-path="url(#p76a0b1f827)" style="fill: none; stroke: #333333; stroke-linecap: round"/>
    <path d="M 528.809873 78.093656
L 533.609873 80.493656
L 528.809873 82.893656
z
" clip-path="url(#p76a0b1f827)" style="fill: #333333; stroke: #333333; stroke-linecap: round"/>
   </g>
   <g id="patch_12">
    <path d="M 392.332453 90.107509
Q 420.536622 122.073581 448.001093 153.201295
" clip-path="url(#p76a0b1f827)" style="fill: none; stroke: #333333; stroke-linecap: round"/>
    <path d="M 446.625029 148.014152
L 448.001093 153.201295
L 443.025741 151.189861
z
" clip-path="url(#p76a0b1f827)" style="fill: #333333; stroke: #333333; stroke-linecap: round"/>
   </g>
   <g id="patch_13">
    <path d="M 400.658612 145.682183
Q 420.535998 155.337321 439.407712 164.503969
" clip-path="url(#p76a0b1f827)" style="fill: none; stroke: #333333; stroke-linecap: round"/>
    <path d="M 436.138713 160.247956
L 439.407712 164.503969
L 434.041503 164.56556
z
" clip-path="url(#p76a0b1f827)" style="fill: #333333; stroke: #333333; stroke-linecap: round"/>
   </g>
   <g id="patch_14">
    <path d="M 603.268372 70.49033
Q 616.198776 66.633731 628.057785 63.096684
" clip-path="url(#p76a0b1f827)" style="fill: none; stroke: #333333; stroke-linecap: round"/>
    <path d="M 622.772061 62.168719
L 628.057785 63.096684
L 624.143978 66.768485
z
" clip-path="url(#p76a0b1f827)" style="fill: #333333; stroke: #333333; stroke-linecap: round"/>
   </g>
   <g id="patch_15">
    <path d="M 603.773232 88.61678
Q 616.198319 91.581488 627.535902 94.286709
" clip-path="url(#p76a0b1f827)" style="fill: none; stroke: #333333; stroke-linecap: round"/>
    <path d="M 623.42399 90.838206
L 627.535902 94.286709
L 622.309952 95.507137
z
" clip-path="url(#p76a0b1f827)" style="fill: #333333; stroke: #333333; stroke-linecap: round"/>
   </g>
   <g id="patch_16">
    <path d="M 597.385902 101.940619
Q 616.197977 116.528843 634.126542 130.43193
" clip-path="url(#p76a0b1f827)" style="fill: none; stroke: #333333; stroke-linecap: round"/>
    <path d="M 631.804146 125.593906
L 634.126542 130.43193
L 628.862685 129.387033
z
" clip-path="url(#p76a0b1f827)" style="fill: #333333; stroke: #333333; stroke-linecap: round"/>
   </g>
   <g id="patch_17">
    <path d="M 506.663302 184.326916
Q 567.2816 191.373442 626.789343 198.290873
" clip-path="url(#p76a0b1f827)" style="fill: none; stroke: #333333; stroke-linecap: round"/>
    <path d="M 622.298568 195.352686
L 626.789343 198.290873
L 621.744328 200.12058
z
" clip-path="url(#p76a0b1f827)" style="fill: #333333; stroke: #333333; stroke-linecap: round"/>
   </g>
   <g id="patch_18">
    <path d="M 670.01311 86.994
Q 684.680587 155.33646 699.113457 222.585779
" clip-path="url(#p76a0b1f827)" style="fill: none; stroke: #333333; stroke-linecap: round"/>
    <path d="M 700.452796 217.389033
L 699.113457 222.585779
L 695.759664 218.39626
z
" clip-path="url(#p76a0b1f827)" style="fill: #333333; stroke: #333333; stroke-linecap: round"/>
   </g>
   <g id="patch_19">
    <path d="M 672.217133 136.337681
Q 684.679968 180.282568 696.837758 223.151841
" clip-path="url(#p76a0b1f827)" style="fill: none; stroke: #333333; stroke-linecap: round"/>
    <path d="M 697.837061 217.879138
L 696.837758 223.151841
L 693.219178 219.188777
z
" clip-path="url(#p76a0b1f827)" style="fill: #333333; stroke: #333333; stroke-linecap: round"/>
   </g>
   <g id="patch_20">
    <path d="M 676.164355 184.856309
Q 684.680622 205.233126 692.765758 224.578377
" clip-path="url(#p76a0b1f827)" style="fill: none; stroke: #333333; stroke-linecap: round"/>
    <path d="M 693.129187 219.224134
L 692.765758 224.578377
L 688.700421 221.075088
z
" clip-path="url(#p76a0b1f827)" style="fill: #333333; stroke: #333333; stroke-linecap: round"/>
   </g>
   <g id="patch_21">
    <path d="M 684.436326 229.873731
Q 684.682202 230.183366 684.232811 229.617442
" clip-path="url(#p76a0b1f827)" style="fill: none; stroke: #333333; stroke-linecap: round"/>
    <path d="M 683.12735 224.36597
L 684.232811 229.617442
L 679.368357 227.350927
z
" clip-path="url(#p76a0b1f827)" style="fill: #333333; stroke: #333333; stroke-linecap: round"/>
   </g>
   <g id="patch_22">
    <path d="M 673.397627 268.683423
Q 655.330969 274.533826 638.327966 280.039793
" clip-path="url(#p76a0b1f827)" style="fill: none; stroke: #333333; stroke-linecap: round"/>
    <path d="M 643.633882 280.844311
L 638.327966 280.039793
L 642.155131 276.277771
z
" clip-path="url(#p76a0b1f827)" style="fill: #333333; stroke: #333333; stroke-linecap: round"/>
   </g>
   <g id="patch_23">
    <path d="M 568.971184 291.165656
Q 550.163616 291.165656 532.474082 291.165656
" clip-path="url(#p76a0b1f827)" style="fill: none; stroke: #333333; stroke-linecap: round"/>
    <path d="M 537.274082 293.565656
L 532.474082 291.165656
L 537.274082 288.765656
z
" clip-path="url(#p76a0b1f827)" style="fill: #333333; stroke: #333333; stroke-linecap: round"/>
   </g>
   <g id="patch_24">
    <path d="M 461.356899 291.165656
Q 442.549331 291.165656 424.859796 291.165656
" clip-path="url(#p76a0b1f827)" style="fill: none; stroke: #333333; stroke-linecap: round"/>
    <path d="M 429.659796 293.565656
L 424.859796 291.165656
L 429.659796 288.765656
z
" clip-path="url(#p76a0b1f827)" style="fill: #333333; stroke: #333333; stroke-linecap: round"/>
   </g>
   <g id="text_1">
    <g id="patch_25">
     <path d="M 52.835095 109.669828
L 108.311658 109.669828
Q 111.461658 109.669828 111.461658 106.519828
L 111.461658 87.731484
Q 111.461658 84.581484 108.311658 84.581484
L 52.835095 84.581484
Q 49.685095 84.581484 49.685095 87.731484
L 49.685095 106.519828
Q 49.685095 109.669828 52.835095 109.669828
z
" style="fill: #eef4f7; stroke: #333333; stroke-linejoin: miter"/>
    </g>
    <!-- Local Push-T -->
    <g transform="translate(52.835095 94.570078) scale(0.09 -0.09)">
     <defs>
      <path id="DejaVuSans-4c" d="M 628 4666
L 1259 4666
L 1259 531
L 3531 531
L 3531 0
L 628 0
L 628 4666
z
" transform="scale(0.015625)"/>
      <path id="DejaVuSans-6f" d="M 1959 3097
Q 1497 3097 1228 2736
Q 959 2375 959 1747
Q 959 1119 1226 758
Q 1494 397 1959 397
Q 2419 397 2687 759
Q 2956 1122 2956 1747
Q 2956 2369 2687 2733
Q 2419 3097 1959 3097
z
M 1959 3584
Q 2709 3584 3137 3096
Q 3566 2609 3566 1747
Q 3566 888 3137 398
Q 2709 -91 1959 -91
Q 1206 -91 779 398
Q 353 888 353 1747
Q 353 2609 779 3096
Q 1206 3584 1959 3584
z
" transform="scale(0.015625)"/>
      <path id="DejaVuSans-63" d="M 3122 3366
L 3122 2828
Q 2878 2963 2633 3030
Q 2388 3097 2138 3097
Q 1578 3097 1268 2742
Q 959 2388 959 1747
Q 959 1106 1268 751
Q 1578 397 2138 397
Q 2388 397 2633 464
Q 2878 531 3122 666
L 3122 134
Q 2881 22 2623 -34
Q 2366 -91 2075 -91
Q 1284 -91 818 406
Q 353 903 353 1747
Q 353 2603 823 3093
Q 1294 3584 2113 3584
Q 2378 3584 2631 3529
Q 2884 3475 3122 3366
z
" transform="scale(0.015625)"/>
      <path id="DejaVuSans-61" d="M 2194 1759
Q 1497 1759 1228 1600
Q 959 1441 959 1056
Q 959 750 1161 570
Q 1363 391 1709 391
Q 2188 391 2477 730
Q 2766 1069 2766 1631
L 2766 1759
L 2194 1759
z
M 3341 1997
L 3341 0
L 2766 0
L 2766 531
Q 2569 213 2275 61
Q 1981 -91 1556 -91
Q 1019 -91 701 211
Q 384 513 384 1019
Q 384 1609 779 1909
Q 1175 2209 1959 2209
L 2766 2209
L 2766 2266
Q 2766 2663 2505 2880
Q 2244 3097 1772 3097
Q 1472 3097 1187 3025
Q 903 2953 641 2809
L 641 3341
Q 956 3463 1253 3523
Q 1550 3584 1831 3584
Q 2591 3584 2966 3190
Q 3341 2797 3341 1997
z
" transform="scale(0.015625)"/>
      <path id="DejaVuSans-6c" d="M 603 4863
L 1178 4863
L 1178 0
L 603 0
L 603 4863
z
" transform="scale(0.015625)"/>
      <path id="DejaVuSans-20" transform="scale(0.015625)"/>
      <path id="DejaVuSans-50" d="M 1259 4147
L 1259 2394
L 2053 2394
Q 2494 2394 2734 2622
Q 2975 2850 2975 3272
Q 2975 3691 2734 3919
Q 2494 4147 2053 4147
L 1259 4147
z
M 628 4666
L 2053 4666
Q 2838 4666 3239 4311
Q 3641 3956 3641 3272
Q 3641 2581 3239 2228
Q 2838 1875 2053 1875
L 1259 1875
L 1259 0
L 628 0
L 628 4666
z
" transform="scale(0.015625)"/>
      <path id="DejaVuSans-75" d="M 544 1381
L 544 3500
L 1119 3500
L 1119 1403
Q 1119 906 1312 657
Q 1506 409 1894 409
Q 2359 409 2629 706
Q 2900 1003 2900 1516
L 2900 3500
L 3475 3500
L 3475 0
L 2900 0
L 2900 538
Q 2691 219 2414 64
Q 2138 -91 1772 -91
Q 1169 -91 856 284
Q 544 659 544 1381
z
M 1991 3584
L 1991 3584
z
" transform="scale(0.015625)"/>
      <path id="DejaVuSans-73" d="M 2834 3397
L 2834 2853
Q 2591 2978 2328 3040
Q 2066 3103 1784 3103
Q 1356 3103 1142 2972
Q 928 2841 928 2578
Q 928 2378 1081 2264
Q 1234 2150 1697 2047
L 1894 2003
Q 2506 1872 2764 1633
Q 3022 1394 3022 966
Q 3022 478 2636 193
Q 2250 -91 1575 -91
Q 1294 -91 989 -36
Q 684 19 347 128
L 347 722
Q 666 556 975 473
Q 1284 391 1588 391
Q 1994 391 2212 530
Q 2431 669 2431 922
Q 2431 1156 2273 1281
Q 2116 1406 1581 1522
L 1381 1569
Q 847 1681 609 1914
Q 372 2147 372 2553
Q 372 3047 722 3315
Q 1072 3584 1716 3584
Q 2034 3584 2315 3537
Q 2597 3491 2834 3397
z
" transform="scale(0.015625)"/>
      <path id="DejaVuSans-68" d="M 3513 2113
L 3513 0
L 2938 0
L 2938 2094
Q 2938 2591 2744 2837
Q 2550 3084 2163 3084
Q 1697 3084 1428 2787
Q 1159 2491 1159 1978
L 1159 0
L 581 0
L 581 4863
L 1159 4863
L 1159 2956
Q 1366 3272 1645 3428
Q 1925 3584 2291 3584
Q 2894 3584 3203 3211
Q 3513 2838 3513 2113
z
" transform="scale(0.015625)"/>
      <path id="DejaVuSans-2d" d="M 313 2009
L 1997 2009
L 1997 1497
L 313 1497
L 313 2009
z
" transform="scale(0.015625)"/>
      <path id="DejaVuSans-54" d="M -19 4666
L 3928 4666
L 3928 4134
L 2272 4134
L 2272 0
L 1638 0
L 1638 4134
L -19 4134
L -19 4666
z
" transform="scale(0.015625)"/>
     </defs>
     <use xlink:href="#DejaVuSans-4c"/>
     <use xlink:href="#DejaVuSans-6f" transform="translate(53.962891 0)"/>
     <use xlink:href="#DejaVuSans-63" transform="translate(115.144531 0)"/>
     <use xlink:href="#DejaVuSans-61" transform="translate(170.125 0)"/>
     <use xlink:href="#DejaVuSans-6c" transform="translate(231.404297 0)"/>
     <use xlink:href="#DejaVuSans-20" transform="translate(259.1875 0)"/>
     <use xlink:href="#DejaVuSans-50" transform="translate(290.974609 0)"/>
     <use xlink:href="#DejaVuSans-75" transform="translate(349.527344 0)"/>
     <use xlink:href="#DejaVuSans-73" transform="translate(412.90625 0)"/>
     <use xlink:href="#DejaVuSans-68" transform="translate(465.005859 0)"/>
     <use xlink:href="#DejaVuSans-2d" transform="translate(528.384766 0)"/>
     <use xlink:href="#DejaVuSans-54" transform="translate(555.34375 0)"/>
    </g>
    <!-- HDF5 -->
    <g transform="translate(68.272908 104.648109) scale(0.09 -0.09)">
     <defs>
      <path id="DejaVuSans-48" d="M 628 4666
L 1259 4666
L 1259 2753
L 3553 2753
L 3553 4666
L 4184 4666
L 4184 0
L 3553 0
L 3553 2222
L 1259 2222
L 1259 0
L 628 0
L 628 4666
z
" transform="scale(0.015625)"/>
      <path id="DejaVuSans-44" d="M 1259 4147
L 1259 519
L 2022 519
Q 2988 519 3436 956
Q 3884 1394 3884 2338
Q 3884 3275 3436 3711
Q 2988 4147 2022 4147
L 1259 4147
z
M 628 4666
L 1925 4666
Q 3281 4666 3915 4102
Q 4550 3538 4550 2338
Q 4550 1131 3912 565
Q 3275 0 1925 0
L 628 0
L 628 4666
z
" transform="scale(0.015625)"/>
      <path id="DejaVuSans-46" d="M 628 4666
L 3309 4666
L 3309 4134
L 1259 4134
L 1259 2759
L 3109 2759
L 3109 2228
L 1259 2228
L 1259 0
L 628 0
L 628 4666
z
" transform="scale(0.015625)"/>
      <path id="DejaVuSans-35" d="M 691 4666
L 3169 4666
L 3169 4134
L 1269 4134
L 1269 2991
Q 1406 3038 1543 3061
Q 1681 3084 1819 3084
Q 2600 3084 3056 2656
Q 3513 2228 3513 1497
Q 3513 744 3044 326
Q 2575 -91 1722 -91
Q 1428 -91 1123 -41
Q 819 9 494 109
L 494 744
Q 775 591 1075 516
Q 1375 441 1709 441
Q 2250 441 2565 725
Q 2881 1009 2881 1497
Q 2881 1984 2565 2268
Q 2250 2553 1709 2553
Q 1456 2553 1204 2497
Q 953 2441 691 2322
L 691 4666
z
" transform="scale(0.015625)"/>
     </defs>
     <use xlink:href="#DejaVuSans-48"/>
     <use xlink:href="#DejaVuSans-44" transform="translate(75.195312 0)"/>
     <use xlink:href="#DejaVuSans-46" transform="translate(152.197266 0)"/>
     <use xlink:href="#DejaVuSans-35" transform="translate(209.716797 0)"/>
    </g>
   </g>
   <g id="text_2">
    <g id="patch_26">
     <path d="M 138.665491 109.669828
L 198.577366 109.669828
Q 201.727366 109.669828 201.727366 106.519828
L 201.727366 87.731484
Q 201.727366 84.581484 198.577366 84.581484
L 138.665491 84.581484
Q 135.515491 84.581484 135.515491 87.731484
L 135.515491 106.519828
Q 135.515491 109.669828 138.665491 109.669828
z
" style="fill: #e7f1df; stroke: #333333; stroke-linejoin: miter"/>
    </g>
    <!-- Build V-JEPA2 -->
    <g transform="translate(138.665491 94.570078) scale(0.09 -0.09)">
     <defs>
      <path id="DejaVuSans-42" d="M 1259 2228
L 1259 519
L 2272 519
Q 2781 519 3026 730
Q 3272 941 3272 1375
Q 3272 1813 3026 2020
Q 2781 2228 2272 2228
L 1259 2228
z
M 1259 4147
L 1259 2741
L 2194 2741
Q 2656 2741 2882 2914
Q 3109 3088 3109 3444
Q 3109 3797 2882 3972
Q 2656 4147 2194 4147
L 1259 4147
z
M 628 4666
L 2241 4666
Q 2963 4666 3353 4366
Q 3744 4066 3744 3513
Q 3744 3084 3544 2831
Q 3344 2578 2956 2516
Q 3422 2416 3680 2098
Q 3938 1781 3938 1306
Q 3938 681 3513 340
Q 3088 0 2303 0
L 628 0
L 628 4666
z
" transform="scale(0.015625)"/>
      <path id="DejaVuSans-69" d="M 603 3500
L 1178 3500
L 1178 0
L 603 0
L 603 3500
z
M 603 4863
L 1178 4863
L 1178 4134
L 603 4134
L 603 4863
z
" transform="scale(0.015625)"/>
      <path id="DejaVuSans-64" d="M 2906 2969
L 2906 4863
L 3481 4863
L 3481 0
L 2906 0
L 2906 525
Q 2725 213 2448 61
Q 2172 -91 1784 -91
Q 1150 -91 751 415
Q 353 922 353 1747
Q 353 2572 751 3078
Q 1150 3584 1784 3584
Q 2172 3584 2448 3432
Q 2725 3281 2906 2969
z
M 947 1747
Q 947 1113 1208 752
Q 1469 391 1925 391
Q 2381 391 2643 752
Q 2906 1113 2906 1747
Q 2906 2381 2643 2742
Q 2381 3103 1925 3103
Q 1469 3103 1208 2742
Q 947 2381 947 1747
z
" transform="scale(0.015625)"/>
      <path id="DejaVuSans-56" d="M 1831 0
L 50 4666
L 709 4666
L 2188 738
L 3669 4666
L 4325 4666
L 2547 0
L 1831 0
z
" transform="scale(0.015625)"/>
      <path id="DejaVuSans-4a" d="M 628 4666
L 1259 4666
L 1259 325
Q 1259 -519 939 -900
Q 619 -1281 -91 -1281
L -331 -1281
L -331 -750
L -134 -750
Q 284 -750 456 -515
Q 628 -281 628 325
L 628 4666
z
" transform="scale(0.015625)"/>
      <path id="DejaVuSans-45" d="M 628 4666
L 3578 4666
L 3578 4134
L 1259 4134
L 1259 2753
L 3481 2753
L 3481 2222
L 1259 2222
L 1259 531
L 3634 531
L 3634 0
L 628 0
L 628 4666
z
" transform="scale(0.015625)"/>
      <path id="DejaVuSans-41" d="M 2188 4044
L 1331 1722
L 3047 1722
L 2188 4044
z
M 1831 4666
L 2547 4666
L 4325 0
L 3669 0
L 3244 1197
L 1141 1197
L 716 0
L 50 0
L 1831 4666
z
" transform="scale(0.015625)"/>
      <path id="DejaVuSans-32" d="M 1228 531
L 3431 531
L 3431 0
L 469 0
L 469 531
Q 828 903 1448 1529
Q 2069 2156 2228 2338
Q 2531 2678 2651 2914
Q 2772 3150 2772 3378
Q 2772 3750 2511 3984
Q 2250 4219 1831 4219
Q 1534 4219 1204 4116
Q 875 4013 500 3803
L 500 4441
Q 881 4594 1212 4672
Q 1544 4750 1819 4750
Q 2544 4750 2975 4387
Q 3406 4025 3406 3419
Q 3406 3131 3298 2873
Q 3191 2616 2906 2266
Q 2828 2175 2409 1742
Q 1991 1309 1228 531
z
" transform="scale(0.015625)"/>
     </defs>
     <use xlink:href="#DejaVuSans-42"/>
     <use xlink:href="#DejaVuSans-75" transform="translate(68.603516 0)"/>
     <use xlink:href="#DejaVuSans-69" transform="translate(131.982422 0)"/>
     <use xlink:href="#DejaVuSans-6c" transform="translate(159.765625 0)"/>
     <use xlink:href="#DejaVuSans-64" transform="translate(187.548828 0)"/>
     <use xlink:href="#DejaVuSans-20" transform="translate(251.025391 0)"/>
     <use xlink:href="#DejaVuSans-56" transform="translate(282.8125 0)"/>
     <use xlink:href="#DejaVuSans-2d" transform="translate(345.345703 0)"/>
     <use xlink:href="#DejaVuSans-4a" transform="translate(387.054688 0)"/>
     <use xlink:href="#DejaVuSans-45" transform="translate(416.546875 0)"/>
     <use xlink:href="#DejaVuSans-50" transform="translate(479.730469 0)"/>
     <use xlink:href="#DejaVuSans-41" transform="translate(533.658203 0)"/>
     <use xlink:href="#DejaVuSans-32" transform="translate(602.066406 0)"/>
    </g>
    <!-- latent cache -->
    <g transform="translate(140.707366 104.648109) scale(0.09 -0.09)">
     <defs>
      <path id="DejaVuSans-74" d="M 1172 4494
L 1172 3500
L 2356 3500
L 2356 3053
L 1172 3053
L 1172 1153
Q 1172 725 1289 603
Q 1406 481 1766 481
L 2356 481
L 2356 0
L 1766 0
Q 1100 0 847 248
Q 594 497 594 1153
L 594 3053
L 172 3053
L 172 3500
L 594 3500
L 594 4494
L 1172 4494
z
" transform="scale(0.015625)"/>
      <path id="DejaVuSans-65" d="M 3597 1894
L 3597 1613
L 953 1613
Q 991 1019 1311 708
Q 1631 397 2203 397
Q 2534 397 2845 478
Q 3156 559 3463 722
L 3463 178
Q 3153 47 2828 -22
Q 2503 -91 2169 -91
Q 1331 -91 842 396
Q 353 884 353 1716
Q 353 2575 817 3079
Q 1281 3584 2069 3584
Q 2775 3584 3186 3129
Q 3597 2675 3597 1894
z
M 3022 2063
Q 3016 2534 2758 2815
Q 2500 3097 2075 3097
Q 1594 3097 1305 2825
Q 1016 2553 972 2059
L 3022 2063
z
" transform="scale(0.015625)"/>
      <path id="DejaVuSans-6e" d="M 3513 2113
L 3513 0
L 2938 0
L 2938 2094
Q 2938 2591 2744 2837
Q 2550 3084 2163 3084
Q 1697 3084 1428 2787
Q 1159 2491 1159 1978
L 1159 0
L 581 0
L 581 3500
L 1159 3500
L 1159 2956
Q 1366 3272 1645 3428
Q 1925 3584 2291 3584
Q 2894 3584 3203 3211
Q 3513 2838 3513 2113
z
" transform="scale(0.015625)"/>
     </defs>
     <use xlink:href="#DejaVuSans-6c"/>
     <use xlink:href="#DejaVuSans-61" transform="translate(27.783203 0)"/>
     <use xlink:href="#DejaVuSans-74" transform="translate(89.0625 0)"/>
     <use xlink:href="#DejaVuSans-65" transform="translate(128.271484 0)"/>
     <use xlink:href="#DejaVuSans-6e" transform="translate(189.794922 0)"/>
     <use xlink:href="#DejaVuSans-74" transform="translate(253.173828 0)"/>
     <use xlink:href="#DejaVuSans-20" transform="translate(292.382812 0)"/>
     <use xlink:href="#DejaVuSans-63" transform="translate(324.169922 0)"/>
     <use xlink:href="#DejaVuSans-61" transform="translate(379.150391 0)"/>
     <use xlink:href="#DejaVuSans-63" transform="translate(440.429688 0)"/>
     <use xlink:href="#DejaVuSans-68" transform="translate(495.410156 0)"/>
     <use xlink:href="#DejaVuSans-65" transform="translate(558.789062 0)"/>
    </g>
   </g>
   <g id="text_3">
    <g id="patch_27">
     <path d="M 239.682519 76.405828
L 293.222676 76.405828
Q 296.372676 76.405828 296.372676 73.255828
L 296.372676 54.467484
Q 296.372676 51.317484 293.222676 51.317484
L 239.682519 51.317484
Q 236.532519 51.317484 236.532519 54.467484
L 236.532519 73.255828
Q 236.532519 76.405828 239.682519 76.405828
z
" style="fill: #e7f1df; stroke: #333333; stroke-linejoin: miter"/>
    </g>
    <!-- Passive skill -->
    <g transform="translate(239.682519 61.306078) scale(0.09 -0.09)">
     <defs>
      <path id="DejaVuSans-76" d="M 191 3500
L 800 3500
L 1894 563
L 2988 3500
L 3597 3500
L 2284 0
L 1503 0
L 191 3500
z
" transform="scale(0.015625)"/>
      <path id="DejaVuSans-6b" d="M 581 4863
L 1159 4863
L 1159 1991
L 2875 3500
L 3609 3500
L 1753 1863
L 3688 0
L 2938 0
L 1159 1709
L 1159 0
L 581 0
L 581 4863
z
" transform="scale(0.015625)"/>
     </defs>
     <use xlink:href="#DejaVuSans-50"/>
     <use xlink:href="#DejaVuSans-61" transform="translate(55.802734 0)"/>
     <use xlink:href="#DejaVuSans-73" transform="translate(117.082031 0)"/>
     <use xlink:href="#DejaVuSans-73" transform="translate(169.181641 0)"/>
     <use xlink:href="#DejaVuSans-69" transform="translate(221.28125 0)"/>
     <use xlink:href="#DejaVuSans-76" transform="translate(249.064453 0)"/>
     <use xlink:href="#DejaVuSans-65" transform="translate(308.244141 0)"/>
     <use xlink:href="#DejaVuSans-20" transform="translate(369.767578 0)"/>
     <use xlink:href="#DejaVuSans-73" transform="translate(401.554688 0)"/>
     <use xlink:href="#DejaVuSans-6b" transform="translate(453.654297 0)"/>
     <use xlink:href="#DejaVuSans-69" transform="translate(511.564453 0)"/>
     <use xlink:href="#DejaVuSans-6c" transform="translate(539.347656 0)"/>
     <use xlink:href="#DejaVuSans-6c" transform="translate(567.130859 0)"/>
    </g>
    <!-- training -->
    <g transform="translate(249.020019 71.384109) scale(0.09 -0.09)">
     <defs>
      <path id="DejaVuSans-72" d="M 2631 2963
Q 2534 3019 2420 3045
Q 2306 3072 2169 3072
Q 1681 3072 1420 2755
Q 1159 2438 1159 1844
L 1159 0
L 581 0
L 581 3500
L 1159 3500
L 1159 2956
Q 1341 3275 1631 3429
Q 1922 3584 2338 3584
Q 2397 3584 2469 3576
Q 2541 3569 2628 3553
L 2631 2963
z
" transform="scale(0.015625)"/>
      <path id="DejaVuSans-67" d="M 2906 1791
Q 2906 2416 2648 2759
Q 2391 3103 1925 3103
Q 1463 3103 1205 2759
Q 947 2416 947 1791
Q 947 1169 1205 825
Q 1463 481 1925 481
Q 2391 481 2648 825
Q 2906 1169 2906 1791
z
M 3481 434
Q 3481 -459 3084 -895
Q 2688 -1331 1869 -1331
Q 1566 -1331 1297 -1286
Q 1028 -1241 775 -1147
L 775 -588
Q 1028 -725 1275 -790
Q 1522 -856 1778 -856
Q 2344 -856 2625 -561
Q 2906 -266 2906 331
L 2906 616
Q 2728 306 2450 153
Q 2172 0 1784 0
Q 1141 0 747 490
Q 353 981 353 1791
Q 353 2603 747 3093
Q 1141 3584 1784 3584
Q 2172 3584 2450 3431
Q 2728 3278 2906 2969
L 2906 3500
L 3481 3500
L 3481 434
z
" transform="scale(0.015625)"/>
     </defs>
     <use xlink:href="#DejaVuSans-74"/>
     <use xlink:href="#DejaVuSans-72" transform="translate(39.208984 0)"/>
     <use xlink:href="#DejaVuSans-61" transform="translate(80.322266 0)"/>
     <use xlink:href="#DejaVuSans-69" transform="translate(141.601562 0)"/>
     <use xlink:href="#DejaVuSans-6e" transform="translate(169.384766 0)"/>
     <use xlink:href="#DejaVuSans-69" transform="translate(232.763672 0)"/>
     <use xlink:href="#DejaVuSans-6e" transform="translate(260.546875 0)"/>
     <use xlink:href="#DejaVuSans-67" transform="translate(323.925781 0)"/>
    </g>
   </g>
   <g id="text_4">
    <g id="patch_28">
     <path d="M 338.225872 76.405828
L 400.124778 76.405828
Q 403.274778 76.405828 403.274778 73.255828
L 403.274778 54.467484
Q 403.274778 51.317484 400.124778 51.317484
L 338.225872 51.317484
Q 335.075872 51.317484 335.075872 54.467484
L 335.075872 73.255828
Q 335.075872 76.405828 338.225872 76.405828
z
" style="fill: #e7f1df; stroke: #333333; stroke-linejoin: miter"/>
    </g>
    <!-- Low-level WM -->
    <g transform="translate(338.225872 61.306078) scale(0.09 -0.09)">
     <defs>
      <path id="DejaVuSans-77" d="M 269 3500
L 844 3500
L 1563 769
L 2278 3500
L 2956 3500
L 3675 769
L 4391 3500
L 4966 3500
L 4050 0
L 3372 0
L 2619 2869
L 1863 0
L 1184 0
L 269 3500
z
" transform="scale(0.015625)"/>
      <path id="DejaVuSans-57" d="M 213 4666
L 850 4666
L 1831 722
L 2809 4666
L 3519 4666
L 4500 722
L 5478 4666
L 6119 4666
L 4947 0
L 4153 0
L 3169 4050
L 2175 0
L 1381 0
L 213 4666
z
" transform="scale(0.015625)"/>
      <path id="DejaVuSans-4d" d="M 628 4666
L 1569 4666
L 2759 1491
L 3956 4666
L 4897 4666
L 4897 0
L 4281 0
L 4281 4097
L 3078 897
L 2444 897
L 1241 4097
L 1241 0
L 628 0
L 628 4666
z
" transform="scale(0.015625)"/>
     </defs>
     <use xlink:href="#DejaVuSans-4c"/>
     <use xlink:href="#DejaVuSans-6f" transform="translate(53.962891 0)"/>
     <use xlink:href="#DejaVuSans-77" transform="translate(115.144531 0)"/>
     <use xlink:href="#DejaVuSans-2d" transform="translate(196.931641 0)"/>
     <use xlink:href="#DejaVuSans-6c" transform="translate(233.015625 0)"/>
     <use xlink:href="#DejaVuSans-65" transform="translate(260.798828 0)"/>
     <use xlink:href="#DejaVuSans-76" transform="translate(322.322266 0)"/>
     <use xlink:href="#DejaVuSans-65" transform="translate(381.501953 0)"/>
     <use xlink:href="#DejaVuSans-6c" transform="translate(443.025391 0)"/>
     <use xlink:href="#DejaVuSans-20" transform="translate(470.808594 0)"/>
     <use xlink:href="#DejaVuSans-57" transform="translate(502.595703 0)"/>
     <use xlink:href="#DejaVuSans-4d" transform="translate(601.472656 0)"/>
    </g>
    <!-- 10% labels -->
    <g transform="translate(344.515325 71.384109) scale(0.09 -0.09)">
     <defs>
      <path id="DejaVuSans-31" d="M 794 531
L 1825 531
L 1825 4091
L 703 3866
L 703 4441
L 1819 4666
L 2450 4666
L 2450 531
L 3481 531
L 3481 0
L 794 0
L 794 531
z
" transform="scale(0.015625)"/>
      <path id="DejaVuSans-30" d="M 2034 4250
Q 1547 4250 1301 3770
Q 1056 3291 1056 2328
Q 1056 1369 1301 889
Q 1547 409 2034 409
Q 2525 409 2770 889
Q 3016 1369 3016 2328
Q 3016 3291 2770 3770
Q 2525 4250 2034 4250
z
M 2034 4750
Q 2819 4750 3233 4129
Q 3647 3509 3647 2328
Q 3647 1150 3233 529
Q 2819 -91 2034 -91
Q 1250 -91 836 529
Q 422 1150 422 2328
Q 422 3509 836 4129
Q 1250 4750 2034 4750
z
" transform="scale(0.015625)"/>
      <path id="DejaVuSans-25" d="M 4653 2053
Q 4381 2053 4226 1822
Q 4072 1591 4072 1178
Q 4072 772 4226 539
Q 4381 306 4653 306
Q 4919 306 5073 539
Q 5228 772 5228 1178
Q 5228 1588 5073 1820
Q 4919 2053 4653 2053
z
M 4653 2450
Q 5147 2450 5437 2106
Q 5728 1763 5728 1178
Q 5728 594 5436 251
Q 5144 -91 4653 -91
Q 4153 -91 3862 251
Q 3572 594 3572 1178
Q 3572 1766 3864 2108
Q 4156 2450 4653 2450
z
M 1428 4353
Q 1159 4353 1004 4120
Q 850 3888 850 3481
Q 850 3069 1003 2837
Q 1156 2606 1428 2606
Q 1700 2606 1854 2837
Q 2009 3069 2009 3481
Q 2009 3884 1853 4118
Q 1697 4353 1428 4353
z
M 4250 4750
L 4750 4750
L 1831 -91
L 1331 -91
L 4250 4750
z
M 1428 4750
Q 1922 4750 2215 4408
Q 2509 4066 2509 3481
Q 2509 2891 2217 2550
Q 1925 2209 1428 2209
Q 931 2209 642 2551
Q 353 2894 353 3481
Q 353 4063 643 4406
Q 934 4750 1428 4750
z
" transform="scale(0.015625)"/>
      <path id="DejaVuSans-62" d="M 3116 1747
Q 3116 2381 2855 2742
Q 2594 3103 2138 3103
Q 1681 3103 1420 2742
Q 1159 2381 1159 1747
Q 1159 1113 1420 752
Q 1681 391 2138 391
Q 2594 391 2855 752
Q 3116 1113 3116 1747
z
M 1159 2969
Q 1341 3281 1617 3432
Q 1894 3584 2278 3584
Q 2916 3584 3314 3078
Q 3713 2572 3713 1747
Q 3713 922 3314 415
Q 2916 -91 2278 -91
Q 1894 -91 1617 61
Q 1341 213 1159 525
L 1159 0
L 581 0
L 581 4863
L 1159 4863
L 1159 2969
z
" transform="scale(0.015625)"/>
     </defs>
     <use xlink:href="#DejaVuSans-31"/>
     <use xlink:href="#DejaVuSans-30" transform="translate(63.623047 0)"/>
     <use xlink:href="#DejaVuSans-25" transform="translate(127.246094 0)"/>
     <use xlink:href="#DejaVuSans-20" transform="translate(222.265625 0)"/>
     <use xlink:href="#DejaVuSans-6c" transform="translate(254.052734 0)"/>
     <use xlink:href="#DejaVuSans-61" transform="translate(281.835938 0)"/>
     <use xlink:href="#DejaVuSans-62" transform="translate(343.115234 0)"/>
     <use xlink:href="#DejaVuSans-65" transform="translate(406.591797 0)"/>
     <use xlink:href="#DejaVuSans-6c" transform="translate(468.115234 0)"/>
     <use xlink:href="#DejaVuSans-73" transform="translate(495.898438 0)"/>
    </g>
   </g>
   <g id="text_5">
    <g id="patch_29">
     <path d="M 338.225872 142.933828
L 400.124778 142.933828
Q 403.274778 142.933828 403.274778 139.783828
L 403.274778 120.995484
Q 403.274778 117.845484 400.124778 117.845484
L 338.225872 117.845484
Q 335.075872 117.845484 335.075872 120.995484
L 335.075872 139.783828
Q 335.075872 142.933828 338.225872 142.933828
z
" style="fill: #e7f1df; stroke: #333333; stroke-linejoin: miter"/>
    </g>
    <!-- Low-level WM -->
    <g transform="translate(338.225872 127.834078) scale(0.09 -0.09)">
     <use xlink:href="#DejaVuSans-4c"/>
     <use xlink:href="#DejaVuSans-6f" transform="translate(53.962891 0)"/>
     <use xlink:href="#DejaVuSans-77" transform="translate(115.144531 0)"/>
     <use xlink:href="#DejaVuSans-2d" transform="translate(196.931641 0)"/>
     <use xlink:href="#DejaVuSans-6c" transform="translate(233.015625 0)"/>
     <use xlink:href="#DejaVuSans-65" transform="translate(260.798828 0)"/>
     <use xlink:href="#DejaVuSans-76" transform="translate(322.322266 0)"/>
     <use xlink:href="#DejaVuSans-65" transform="translate(381.501953 0)"/>
     <use xlink:href="#DejaVuSans-6c" transform="translate(443.025391 0)"/>
     <use xlink:href="#DejaVuSans-20" transform="translate(470.808594 0)"/>
     <use xlink:href="#DejaVuSans-57" transform="translate(502.595703 0)"/>
     <use xlink:href="#DejaVuSans-4d" transform="translate(601.472656 0)"/>
    </g>
    <!-- 100% labels -->
    <g transform="translate(341.6522 137.912109) scale(0.09 -0.09)">
     <use xlink:href="#DejaVuSans-31"/>
     <use xlink:href="#DejaVuSans-30" transform="translate(63.623047 0)"/>
     <use xlink:href="#DejaVuSans-30" transform="translate(127.246094 0)"/>
     <use xlink:href="#DejaVuSans-25" transform="translate(190.869141 0)"/>
     <use xlink:href="#DejaVuSans-20" transform="translate(285.888672 0)"/>
     <use xlink:href="#DejaVuSans-6c" transform="translate(317.675781 0)"/>
     <use xlink:href="#DejaVuSans-61" transform="translate(345.458984 0)"/>
     <use xlink:href="#DejaVuSans-62" transform="translate(406.738281 0)"/>
     <use xlink:href="#DejaVuSans-65" transform="translate(470.214844 0)"/>
     <use xlink:href="#DejaVuSans-6c" transform="translate(531.738281 0)"/>
     <use xlink:href="#DejaVuSans-73" transform="translate(559.521484 0)"/>
    </g>
   </g>
   <g id="text_6">
    <g id="patch_30">
     <path d="M 441.828911 93.037828
L 501.967193 93.037828
Q 505.117193 93.037828 505.117193 89.887828
L 505.117193 71.099484
Q 505.117193 67.949484 501.967193 67.949484
L 441.828911 67.949484
Q 438.678911 67.949484 438.678911 71.099484
L 438.678911 89.887828
Q 438.678911 93.037828 441.828911 93.037828
z
" style="fill: #e7f1df; stroke: #333333; stroke-linejoin: miter"/>
    </g>
    <!-- Joint finetune -->
    <g transform="translate(441.828911 77.938078) scale(0.09 -0.09)">
     <defs>
      <path id="DejaVuSans-66" d="M 2375 4863
L 2375 4384
L 1825 4384
Q 1516 4384 1395 4259
Q 1275 4134 1275 3809
L 1275 3500
L 2222 3500
L 2222 3053
L 1275 3053
L 1275 0
L 697 0
L 697 3053
L 147 3053
L 147 3500
L 697 3500
L 697 3744
Q 697 4328 969 4595
Q 1241 4863 1831 4863
L 2375 4863
z
" transform="scale(0.015625)"/>
     </defs>
     <use xlink:href="#DejaVuSans-4a"/>
     <use xlink:href="#DejaVuSans-6f" transform="translate(29.492188 0)"/>
     <use xlink:href="#DejaVuSans-69" transform="translate(90.673828 0)"/>
     <use xlink:href="#DejaVuSans-6e" transform="translate(118.457031 0)"/>
     <use xlink:href="#DejaVuSans-74" transform="translate(181.835938 0)"/>
     <use xlink:href="#DejaVuSans-20" transform="translate(221.044922 0)"/>
     <use xlink:href="#DejaVuSans-66" transform="translate(252.832031 0)"/>
     <use xlink:href="#DejaVuSans-69" transform="translate(288.037109 0)"/>
     <use xlink:href="#DejaVuSans-6e" transform="translate(315.820312 0)"/>
     <use xlink:href="#DejaVuSans-65" transform="translate(379.199219 0)"/>
     <use xlink:href="#DejaVuSans-74" transform="translate(440.722656 0)"/>
     <use xlink:href="#DejaVuSans-75" transform="translate(479.931641 0)"/>
     <use xlink:href="#DejaVuSans-6e" transform="translate(543.310547 0)"/>
     <use xlink:href="#DejaVuSans-65" transform="translate(606.689453 0)"/>
    </g>
    <!-- 10% labels -->
    <g transform="translate(447.238052 88.016109) scale(0.09 -0.09)">
     <use xlink:href="#DejaVuSans-31"/>
     <use xlink:href="#DejaVuSans-30" transform="translate(63.623047 0)"/>
     <use xlink:href="#DejaVuSans-25" transform="translate(127.246094 0)"/>
     <use xlink:href="#DejaVuSans-20" transform="translate(222.265625 0)"/>
     <use xlink:href="#DejaVuSans-6c" transform="translate(254.052734 0)"/>
     <use xlink:href="#DejaVuSans-61" transform="translate(281.835938 0)"/>
     <use xlink:href="#DejaVuSans-62" transform="translate(343.115234 0)"/>
     <use xlink:href="#DejaVuSans-65" transform="translate(406.591797 0)"/>
     <use xlink:href="#DejaVuSans-6c" transform="translate(468.115234 0)"/>
     <use xlink:href="#DejaVuSans-73" transform="translate(495.898438 0)"/>
    </g>
   </g>
   <g id="text_7">
    <g id="patch_31">
     <path d="M 210.298926 176.197828
L 322.606269 176.197828
Q 325.756269 176.197828 325.756269 173.047828
L 325.756269 154.259484
Q 325.756269 151.109484 322.606269 151.109484
L 210.298926 151.109484
Q 207.148926 151.109484 207.148926 154.259484
L 207.148926 173.047828
Q 207.148926 176.197828 210.298926 176.197828
z
" style="fill: #e8e7f4; stroke: #333333; stroke-linejoin: miter"/>
    </g>
    <!-- Goal mode before rollout -->
    <g transform="translate(210.298926 161.098078) scale(0.09 -0.09)">
     <defs>
      <path id="DejaVuSans-47" d="M 3809 666
L 3809 1919
L 2778 1919
L 2778 2438
L 4434 2438
L 4434 434
Q 4069 175 3628 42
Q 3188 -91 2688 -91
Q 1594 -91 976 548
Q 359 1188 359 2328
Q 359 3472 976 4111
Q 1594 4750 2688 4750
Q 3144 4750 3555 4637
Q 3966 4525 4313 4306
L 4313 3634
Q 3963 3931 3569 4081
Q 3175 4231 2741 4231
Q 1884 4231 1454 3753
Q 1025 3275 1025 2328
Q 1025 1384 1454 906
Q 1884 428 2741 428
Q 3075 428 3337 486
Q 3600 544 3809 666
z
" transform="scale(0.015625)"/>
      <path id="DejaVuSans-6d" d="M 3328 2828
Q 3544 3216 3844 3400
Q 4144 3584 4550 3584
Q 5097 3584 5394 3201
Q 5691 2819 5691 2113
L 5691 0
L 5113 0
L 5113 2094
Q 5113 2597 4934 2840
Q 4756 3084 4391 3084
Q 3944 3084 3684 2787
Q 3425 2491 3425 1978
L 3425 0
L 2847 0
L 2847 2094
Q 2847 2600 2669 2842
Q 2491 3084 2119 3084
Q 1678 3084 1418 2786
Q 1159 2488 1159 1978
L 1159 0
L 581 0
L 581 3500
L 1159 3500
L 1159 2956
Q 1356 3278 1631 3431
Q 1906 3584 2284 3584
Q 2666 3584 2933 3390
Q 3200 3197 3328 2828
z
" transform="scale(0.015625)"/>
     </defs>
     <use xlink:href="#DejaVuSans-47"/>
     <use xlink:href="#DejaVuSans-6f" transform="translate(77.490234 0)"/>
     <use xlink:href="#DejaVuSans-61" transform="translate(138.671875 0)"/>
     <use xlink:href="#DejaVuSans-6c" transform="translate(199.951172 0)"/>
     <use xlink:href="#DejaVuSans-20" transform="translate(227.734375 0)"/>
     <use xlink:href="#DejaVuSans-6d" transform="translate(259.521484 0)"/>
     <use xlink:href="#DejaVuSans-6f" transform="translate(356.933594 0)"/>
     <use xlink:href="#DejaVuSans-64" transform="translate(418.115234 0)"/>
     <use xlink:href="#DejaVuSans-65" transform="translate(481.591797 0)"/>
     <use xlink:href="#DejaVuSans-20" transform="translate(543.115234 0)"/>
     <use xlink:href="#DejaVuSans-62" transform="translate(574.902344 0)"/>
     <use xlink:href="#DejaVuSans-65" transform="translate(638.378906 0)"/>
     <use xlink:href="#DejaVuSans-66" transform="translate(699.902344 0)"/>
     <use xlink:href="#DejaVuSans-6f" transform="translate(735.107422 0)"/>
     <use xlink:href="#DejaVuSans-72" transform="translate(796.289062 0)"/>
     <use xlink:href="#DejaVuSans-65" transform="translate(835.152344 0)"/>
     <use xlink:href="#DejaVuSans-20" transform="translate(896.675781 0)"/>
     <use xlink:href="#DejaVuSans-72" transform="translate(928.462891 0)"/>
     <use xlink:href="#DejaVuSans-6f" transform="translate(967.326172 0)"/>
     <use xlink:href="#DejaVuSans-6c" transform="translate(1028.507812 0)"/>
     <use xlink:href="#DejaVuSans-6c" transform="translate(1056.291016 0)"/>
     <use xlink:href="#DejaVuSans-6f" transform="translate(1084.074219 0)"/>
     <use xlink:href="#DejaVuSans-75" transform="translate(1145.255859 0)"/>
     <use xlink:href="#DejaVuSans-74" transform="translate(1208.634766 0)"/>
    </g>
    <!-- task or trajectory -->
    <g transform="translate(227.621113 171.176109) scale(0.09 -0.09)">
     <defs>
      <path id="DejaVuSans-6a" d="M 603 3500
L 1178 3500
L 1178 -63
Q 1178 -731 923 -1031
Q 669 -1331 103 -1331
L -116 -1331
L -116 -844
L 38 -844
Q 366 -844 484 -692
Q 603 -541 603 -63
L 603 3500
z
M 603 4863
L 1178 4863
L 1178 4134
L 603 4134
L 603 4863
z
" transform="scale(0.015625)"/>
      <path id="DejaVuSans-79" d="M 2059 -325
Q 1816 -950 1584 -1140
Q 1353 -1331 966 -1331
L 506 -1331
L 506 -850
L 844 -850
Q 1081 -850 1212 -737
Q 1344 -625 1503 -206
L 1606 56
L 191 3500
L 800 3500
L 1894 763
L 2988 3500
L 3597 3500
L 2059 -325
z
" transform="scale(0.015625)"/>
     </defs>
     <use xlink:href="#DejaVuSans-74"/>
     <use xlink:href="#DejaVuSans-61" transform="translate(39.208984 0)"/>
     <use xlink:href="#DejaVuSans-73" transform="translate(100.488281 0)"/>
     <use xlink:href="#DejaVuSans-6b" transform="translate(152.587891 0)"/>
     <use xlink:href="#DejaVuSans-20" transform="translate(210.498047 0)"/>
     <use xlink:href="#DejaVuSans-6f" transform="translate(242.285156 0)"/>
     <use xlink:href="#DejaVuSans-72" transform="translate(303.466797 0)"/>
     <use xlink:href="#DejaVuSans-20" transform="translate(344.580078 0)"/>
     <use xlink:href="#DejaVuSans-74" transform="translate(376.367188 0)"/>
     <use xlink:href="#DejaVuSans-72" transform="translate(415.576172 0)"/>
     <use xlink:href="#DejaVuSans-61" transform="translate(456.689453 0)"/>
     <use xlink:href="#DejaVuSans-6a" transform="translate(517.96875 0)"/>
     <use xlink:href="#DejaVuSans-65" transform="translate(545.751953 0)"/>
     <use xlink:href="#DejaVuSans-63" transform="translate(607.275391 0)"/>
     <use xlink:href="#DejaVuSans-74" transform="translate(662.255859 0)"/>
     <use xlink:href="#DejaVuSans-6f" transform="translate(701.464844 0)"/>
     <use xlink:href="#DejaVuSans-72" transform="translate(762.646484 0)"/>
     <use xlink:href="#DejaVuSans-79" transform="translate(803.759766 0)"/>
    </g>
   </g>
   <g id="text_8">
    <g id="patch_32">
     <path d="M 543.831721 93.037828
L 595.626721 93.037828
Q 598.776721 93.037828 598.776721 89.887828
L 598.776721 71.099484
Q 598.776721 67.949484 595.626721 67.949484
L 543.831721 67.949484
Q 540.681721 67.949484 540.681721 71.099484
L 540.681721 89.887828
Q 540.681721 93.037828 543.831721 93.037828
z
" style="fill: #e8e7f4; stroke: #333333; stroke-linejoin: miter"/>
    </g>
    <!-- Forced eval -->
    <g transform="translate(543.831721 77.938078) scale(0.09 -0.09)">
     <use xlink:href="#DejaVuSans-46"/>
     <use xlink:href="#DejaVuSans-6f" transform="translate(53.894531 0)"/>
     <use xlink:href="#DejaVuSans-72" transform="translate(115.076172 0)"/>
     <use xlink:href="#DejaVuSans-63" transform="translate(153.939453 0)"/>
     <use xlink:href="#DejaVuSans-65" transform="translate(208.919922 0)"/>
     <use xlink:href="#DejaVuSans-64" transform="translate(270.443359 0)"/>
     <use xlink:href="#DejaVuSans-20" transform="translate(333.919922 0)"/>
     <use xlink:href="#DejaVuSans-65" transform="translate(365.707031 0)"/>
     <use xlink:href="#DejaVuSans-76" transform="translate(427.230469 0)"/>
     <use xlink:href="#DejaVuSans-61" transform="translate(486.410156 0)"/>
     <use xlink:href="#DejaVuSans-6c" transform="translate(547.689453 0)"/>
    </g>
    <!-- joint ckpt -->
    <g transform="translate(548.728283 88.016109) scale(0.09 -0.09)">
     <defs>
      <path id="DejaVuSans-70" d="M 1159 525
L 1159 -1331
L 581 -1331
L 581 3500
L 1159 3500
L 1159 2969
Q 1341 3281 1617 3432
Q 1894 3584 2278 3584
Q 2916 3584 3314 3078
Q 3713 2572 3713 1747
Q 3713 922 3314 415
Q 2916 -91 2278 -91
Q 1894 -91 1617 61
Q 1341 213 1159 525
z
M 3116 1747
Q 3116 2381 2855 2742
Q 2594 3103 2138 3103
Q 1681 3103 1420 2742
Q 1159 2381 1159 1747
Q 1159 1113 1420 752
Q 1681 391 2138 391
Q 2594 391 2855 752
Q 3116 1113 3116 1747
z
" transform="scale(0.015625)"/>
     </defs>
     <use xlink:href="#DejaVuSans-6a"/>
     <use xlink:href="#DejaVuSans-6f" transform="translate(27.783203 0)"/>
     <use xlink:href="#DejaVuSans-69" transform="translate(88.964844 0)"/>
     <use xlink:href="#DejaVuSans-6e" transform="translate(116.748047 0)"/>
     <use xlink:href="#DejaVuSans-74" transform="translate(180.126953 0)"/>
     <use xlink:href="#DejaVuSans-20" transform="translate(219.335938 0)"/>
     <use xlink:href="#DejaVuSans-63" transform="translate(251.123047 0)"/>
     <use xlink:href="#DejaVuSans-6b" transform="translate(306.103516 0)"/>
     <use xlink:href="#DejaVuSans-70" transform="translate(364.013672 0)"/>
     <use xlink:href="#DejaVuSans-74" transform="translate(427.490234 0)"/>
    </g>
   </g>
   <g id="text_9">
    <g id="patch_33">
     <path d="M 438.413833 192.829828
L 505.382271 192.829828
Q 508.532271 192.829828 508.532271 189.679828
L 508.532271 170.891484
Q 508.532271 167.741484 505.382271 167.741484
L 438.413833 167.741484
Q 435.263833 167.741484 435.263833 170.891484
L 435.263833 189.679828
Q 435.263833 192.829828 438.413833 192.829828
z
" style="fill: #e8e7f4; stroke: #333333; stroke-linejoin: miter"/>
    </g>
    <!-- Forced eval -->
    <g transform="translate(446.000552 177.730078) scale(0.09 -0.09)">
     <use xlink:href="#DejaVuSans-46"/>
     <use xlink:href="#DejaVuSans-6f" transform="translate(53.894531 0)"/>
     <use xlink:href="#DejaVuSans-72" transform="translate(115.076172 0)"/>
     <use xlink:href="#DejaVuSans-63" transform="translate(153.939453 0)"/>
     <use xlink:href="#DejaVuSans-65" transform="translate(208.919922 0)"/>
     <use xlink:href="#DejaVuSans-64" transform="translate(270.443359 0)"/>
     <use xlink:href="#DejaVuSans-20" transform="translate(333.919922 0)"/>
     <use xlink:href="#DejaVuSans-65" transform="translate(365.707031 0)"/>
     <use xlink:href="#DejaVuSans-76" transform="translate(427.230469 0)"/>
     <use xlink:href="#DejaVuSans-61" transform="translate(486.410156 0)"/>
     <use xlink:href="#DejaVuSans-6c" transform="translate(547.689453 0)"/>
    </g>
    <!-- low-level ckpts -->
    <g transform="translate(438.413833 187.808109) scale(0.09 -0.09)">
     <use xlink:href="#DejaVuSans-6c"/>
     <use xlink:href="#DejaVuSans-6f" transform="translate(27.783203 0)"/>
     <use xlink:href="#DejaVuSans-77" transform="translate(88.964844 0)"/>
     <use xlink:href="#DejaVuSans-2d" transform="translate(170.751953 0)"/>
     <use xlink:href="#DejaVuSans-6c" transform="translate(206.835938 0)"/>
     <use xlink:href="#DejaVuSans-65" transform="translate(234.619141 0)"/>
     <use xlink:href="#DejaVuSans-76" transform="translate(296.142578 0)"/>
     <use xlink:href="#DejaVuSans-65" transform="translate(355.322266 0)"/>
     <use xlink:href="#DejaVuSans-6c" transform="translate(416.845703 0)"/>
     <use xlink:href="#DejaVuSans-20" transform="translate(444.628906 0)"/>
     <use xlink:href="#DejaVuSans-63" transform="translate(476.416016 0)"/>
     <use xlink:href="#DejaVuSans-6b" transform="translate(531.396484 0)"/>
     <use xlink:href="#DejaVuSans-70" transform="translate(589.306641 0)"/>
     <use xlink:href="#DejaVuSans-74" transform="translate(652.783203 0)"/>
     <use xlink:href="#DejaVuSans-73" transform="translate(691.992188 0)"/>
    </g>
   </g>
   <g id="text_10">
    <g id="patch_34">
     <path d="M 643.935472 65.317828
L 681.402191 65.317828
Q 684.552191 65.317828 684.552191 62.167828
L 684.552191 43.379484
Q 684.552191 40.229484 681.402191 40.229484
L 643.935472 40.229484
Q 640.785472 40.229484 640.785472 43.379484
L 640.785472 62.167828
Q 640.785472 65.317828 643.935472 65.317828
z
" style="fill: #f5e7e2; stroke: #333333; stroke-linejoin: miter"/>
    </g>
    <!-- Joint flat -->
    <g transform="translate(643.935472 50.218078) scale(0.09 -0.09)">
     <use xlink:href="#DejaVuSans-4a"/>
     <use xlink:href="#DejaVuSans-6f" transform="translate(29.492188 0)"/>
     <use xlink:href="#DejaVuSans-69" transform="translate(90.673828 0)"/>
     <use xlink:href="#DejaVuSans-6e" transform="translate(118.457031 0)"/>
     <use xlink:href="#DejaVuSans-74" transform="translate(181.835938 0)"/>
     <use xlink:href="#DejaVuSans-20" transform="translate(221.044922 0)"/>
     <use xlink:href="#DejaVuSans-66" transform="translate(252.832031 0)"/>
     <use xlink:href="#DejaVuSans-6c" transform="translate(288.037109 0)"/>
     <use xlink:href="#DejaVuSans-61" transform="translate(315.820312 0)"/>
     <use xlink:href="#DejaVuSans-74" transform="translate(377.099609 0)"/>
    </g>
    <!-- planner -->
    <g transform="translate(645.481644 60.296109) scale(0.09 -0.09)">
     <use xlink:href="#DejaVuSans-70"/>
     <use xlink:href="#DejaVuSans-6c" transform="translate(63.476562 0)"/>
     <use xlink:href="#DejaVuSans-61" transform="translate(91.259766 0)"/>
     <use xlink:href="#DejaVuSans-6e" transform="translate(152.539062 0)"/>
     <use xlink:href="#DejaVuSans-6e" transform="translate(215.917969 0)"/>
     <use xlink:href="#DejaVuSans-65" transform="translate(279.296875 0)"/>
     <use xlink:href="#DejaVuSans-72" transform="translate(340.820312 0)"/>
    </g>
   </g>
   <g id="text_11">
    <g id="patch_35">
     <path d="M 625.005941 115.213828
L 700.331722 115.213828
Q 703.481722 115.213828 703.481722 112.063828
L 703.481722 93.275484
Q 703.481722 90.125484 700.331722 90.125484
L 625.005941 90.125484
Q 621.855941 90.125484 621.855941 93.275484
L 621.855941 112.063828
Q 621.855941 115.213828 625.005941 115.213828
z
" style="fill: #f5e7e2; stroke: #333333; stroke-linejoin: miter"/>
    </g>
    <!-- Joint hierarchical -->
    <g transform="translate(625.005941 100.114078) scale(0.09 -0.09)">
     <use xlink:href="#DejaVuSans-4a"/>
     <use xlink:href="#DejaVuSans-6f" transform="translate(29.492188 0)"/>
     <use xlink:href="#DejaVuSans-69" transform="translate(90.673828 0)"/>
     <use xlink:href="#DejaVuSans-6e" transform="translate(118.457031 0)"/>
     <use xlink:href="#DejaVuSans-74" transform="translate(181.835938 0)"/>
     <use xlink:href="#DejaVuSans-20" transform="translate(221.044922 0)"/>
     <use xlink:href="#DejaVuSans-68" transform="translate(252.832031 0)"/>
     <use xlink:href="#DejaVuSans-69" transform="translate(316.210938 0)"/>
     <use xlink:href="#DejaVuSans-65" transform="translate(343.994141 0)"/>
     <use xlink:href="#DejaVuSans-72" transform="translate(405.517578 0)"/>
     <use xlink:href="#DejaVuSans-61" transform="translate(446.630859 0)"/>
     <use xlink:href="#DejaVuSans-72" transform="translate(507.910156 0)"/>
     <use xlink:href="#DejaVuSans-63" transform="translate(546.773438 0)"/>
     <use xlink:href="#DejaVuSans-68" transform="translate(601.753906 0)"/>
     <use xlink:href="#DejaVuSans-69" transform="translate(665.132812 0)"/>
     <use xlink:href="#DejaVuSans-63" transform="translate(692.916016 0)"/>
     <use xlink:href="#DejaVuSans-61" transform="translate(747.896484 0)"/>
     <use xlink:href="#DejaVuSans-6c" transform="translate(809.175781 0)"/>
    </g>
    <!-- planner -->
    <g transform="translate(645.481644 110.192109) scale(0.09 -0.09)">
     <use xlink:href="#DejaVuSans-70"/>
     <use xlink:href="#DejaVuSans-6c" transform="translate(63.476562 0)"/>
     <use xlink:href="#DejaVuSans-61" transform="translate(91.259766 0)"/>
     <use xlink:href="#DejaVuSans-6e" transform="translate(152.539062 0)"/>
     <use xlink:href="#DejaVuSans-6e" transform="translate(215.917969 0)"/>
     <use xlink:href="#DejaVuSans-65" transform="translate(279.296875 0)"/>
     <use xlink:href="#DejaVuSans-72" transform="translate(340.820312 0)"/>
    </g>
   </g>
   <g id="text_12">
    <g id="patch_36">
     <path d="M 633.716253 165.109828
L 691.621409 165.109828
Q 694.771409 165.109828 694.771409 161.959828
L 694.771409 143.171484
Q 694.771409 140.021484 691.621409 140.021484
L 633.716253 140.021484
Q 630.566253 140.021484 630.566253 143.171484
L 630.566253 161.959828
Q 630.566253 165.109828 633.716253 165.109828
z
" style="fill: #f5e7e2; stroke: #333333; stroke-linejoin: miter"/>
    </g>
    <!-- Random-skill -->
    <g transform="translate(633.716253 150.010078) scale(0.09 -0.09)">
     <defs>
      <path id="DejaVuSans-52" d="M 2841 2188
Q 3044 2119 3236 1894
Q 3428 1669 3622 1275
L 4263 0
L 3584 0
L 2988 1197
Q 2756 1666 2539 1819
Q 2322 1972 1947 1972
L 1259 1972
L 1259 0
L 628 0
L 628 4666
L 2053 4666
Q 2853 4666 3247 4331
Q 3641 3997 3641 3322
Q 3641 2881 3436 2590
Q 3231 2300 2841 2188
z
M 1259 4147
L 1259 2491
L 2053 2491
Q 2509 2491 2742 2702
Q 2975 2913 2975 3322
Q 2975 3731 2742 3939
Q 2509 4147 2053 4147
L 1259 4147
z
" transform="scale(0.015625)"/>
     </defs>
     <use xlink:href="#DejaVuSans-52"/>
     <use xlink:href="#DejaVuSans-61" transform="translate(67.232422 0)"/>
     <use xlink:href="#DejaVuSans-6e" transform="translate(128.511719 0)"/>
     <use xlink:href="#DejaVuSans-64" transform="translate(191.890625 0)"/>
     <use xlink:href="#DejaVuSans-6f" transform="translate(255.367188 0)"/>
     <use xlink:href="#DejaVuSans-6d" transform="translate(316.548828 0)"/>
     <use xlink:href="#DejaVuSans-2d" transform="translate(413.960938 0)"/>
     <use xlink:href="#DejaVuSans-73" transform="translate(450.044922 0)"/>
     <use xlink:href="#DejaVuSans-6b" transform="translate(502.144531 0)"/>
     <use xlink:href="#DejaVuSans-69" transform="translate(560.054688 0)"/>
     <use xlink:href="#DejaVuSans-6c" transform="translate(587.837891 0)"/>
     <use xlink:href="#DejaVuSans-6c" transform="translate(615.621094 0)"/>
    </g>
    <!-- ablation -->
    <g transform="translate(644.426956 160.088109) scale(0.09 -0.09)">
     <use xlink:href="#DejaVuSans-61"/>
     <use xlink:href="#DejaVuSans-62" transform="translate(61.279297 0)"/>
     <use xlink:href="#DejaVuSans-6c" transform="translate(124.755859 0)"/>
     <use xlink:href="#DejaVuSans-61" transform="translate(152.539062 0)"/>
     <use xlink:href="#DejaVuSans-74" transform="translate(213.818359 0)"/>
     <use xlink:href="#DejaVuSans-69" transform="translate(253.027344 0)"/>
     <use xlink:href="#DejaVuSans-6f" transform="translate(280.810547 0)"/>
     <use xlink:href="#DejaVuSans-6e" transform="translate(341.992188 0)"/>
    </g>
   </g>
   <g id="text_13">
    <g id="patch_37">
     <path d="M 632.689691 215.005828
L 692.647972 215.005828
Q 695.797972 215.005828 695.797972 211.855828
L 695.797972 193.067484
Q 695.797972 189.917484 692.647972 189.917484
L 632.689691 189.917484
Q 629.539691 189.917484 629.539691 193.067484
L 629.539691 211.855828
Q 629.539691 215.005828 632.689691 215.005828
z
" style="fill: #f5e7e2; stroke: #333333; stroke-linejoin: miter"/>
    </g>
    <!-- Labeled-only -->
    <g transform="translate(633.675472 199.906078) scale(0.09 -0.09)">
     <use xlink:href="#DejaVuSans-4c"/>
     <use xlink:href="#DejaVuSans-61" transform="translate(55.712891 0)"/>
     <use xlink:href="#DejaVuSans-62" transform="translate(116.992188 0)"/>
     <use xlink:href="#DejaVuSans-65" transform="translate(180.46875 0)"/>
     <use xlink:href="#DejaVuSans-6c" transform="translate(241.992188 0)"/>
     <use xlink:href="#DejaVuSans-65" transform="translate(269.775391 0)"/>
     <use xlink:href="#DejaVuSans-64" transform="translate(331.298828 0)"/>
     <use xlink:href="#DejaVuSans-2d" transform="translate(394.775391 0)"/>
     <use xlink:href="#DejaVuSans-6f" transform="translate(432.734375 0)"/>
     <use xlink:href="#DejaVuSans-6e" transform="translate(493.916016 0)"/>
     <use xlink:href="#DejaVuSans-6c" transform="translate(557.294922 0)"/>
     <use xlink:href="#DejaVuSans-79" transform="translate(585.078125 0)"/>
    </g>
    <!-- flat baselines -->
    <g transform="translate(632.689691 209.984109) scale(0.09 -0.09)">
     <use xlink:href="#DejaVuSans-66"/>
     <use xlink:href="#DejaVuSans-6c" transform="translate(35.205078 0)"/>
     <use xlink:href="#DejaVuSans-61" transform="translate(62.988281 0)"/>
     <use xlink:href="#DejaVuSans-74" transform="translate(124.267578 0)"/>
     <use xlink:href="#DejaVuSans-20" transform="translate(163.476562 0)"/>
     <use xlink:href="#DejaVuSans-62" transform="translate(195.263672 0)"/>
     <use xlink:href="#DejaVuSans-61" transform="translate(258.740234 0)"/>
     <use xlink:href="#DejaVuSans-73" transform="translate(320.019531 0)"/>
     <use xlink:href="#DejaVuSans-65" transform="translate(372.119141 0)"/>
     <use xlink:href="#DejaVuSans-6c" transform="translate(433.642578 0)"/>
     <use xlink:href="#DejaVuSans-69" transform="translate(461.425781 0)"/>
     <use xlink:href="#DejaVuSans-6e" transform="translate(489.208984 0)"/>
     <use xlink:href="#DejaVuSans-65" transform="translate(552.587891 0)"/>
     <use xlink:href="#DejaVuSans-73" transform="translate(614.111328 0)"/>
    </g>
   </g>
   <g id="text_14">
    <g id="patch_38">
     <path d="M 660.646607 270.445828
L 752.739107 270.445828
Q 755.889107 270.445828 755.889107 267.295828
L 755.889107 248.507484
Q 755.889107 245.357484 752.739107 245.357484
L 660.646607 245.357484
Q 657.496607 245.357484 657.496607 248.507484
L 657.496607 267.295828
Q 657.496607 270.445828 660.646607 270.445828
z
" style="fill: #e8e7f4; stroke: #333333; stroke-linejoin: miter"/>
    </g>
    <!-- Coverage primary -->
    <g transform="translate(666.090201 255.346078) scale(0.09 -0.09)">
     <defs>
      <path id="DejaVuSans-43" d="M 4122 4306
L 4122 3641
Q 3803 3938 3442 4084
Q 3081 4231 2675 4231
Q 1875 4231 1450 3742
Q 1025 3253 1025 2328
Q 1025 1406 1450 917
Q 1875 428 2675 428
Q 3081 428 3442 575
Q 3803 722 4122 1019
L 4122 359
Q 3791 134 3420 21
Q 3050 -91 2638 -91
Q 1578 -91 968 557
Q 359 1206 359 2328
Q 359 3453 968 4101
Q 1578 4750 2638 4750
Q 3056 4750 3426 4639
Q 3797 4528 4122 4306
z
" transform="scale(0.015625)"/>
     </defs>
     <use xlink:href="#DejaVuSans-43"/>
     <use xlink:href="#DejaVuSans-6f" transform="translate(69.824219 0)"/>
     <use xlink:href="#DejaVuSans-76" transform="translate(131.005859 0)"/>
     <use xlink:href="#DejaVuSans-65" transform="translate(190.185547 0)"/>
     <use xlink:href="#DejaVuSans-72" transform="translate(251.708984 0)"/>
     <use xlink:href="#DejaVuSans-61" transform="translate(292.822266 0)"/>
     <use xlink:href="#DejaVuSans-67" transform="translate(354.101562 0)"/>
     <use xlink:href="#DejaVuSans-65" transform="translate(417.578125 0)"/>
     <use xlink:href="#DejaVuSans-20" transform="translate(479.101562 0)"/>
     <use xlink:href="#DejaVuSans-70" transform="translate(510.888672 0)"/>
     <use xlink:href="#DejaVuSans-72" transform="translate(574.365234 0)"/>
     <use xlink:href="#DejaVuSans-69" transform="translate(615.478516 0)"/>
     <use xlink:href="#DejaVuSans-6d" transform="translate(643.261719 0)"/>
     <use xlink:href="#DejaVuSans-61" transform="translate(740.673828 0)"/>
     <use xlink:href="#DejaVuSans-72" transform="translate(801.953125 0)"/>
     <use xlink:href="#DejaVuSans-79" transform="translate(843.066406 0)"/>
    </g>
    <!-- plus pose diagnostic -->
    <g transform="translate(660.646607 265.424109) scale(0.09 -0.09)">
     <use xlink:href="#DejaVuSans-70"/>
     <use xlink:href="#DejaVuSans-6c" transform="translate(63.476562 0)"/>
     <use xlink:href="#DejaVuSans-75" transform="translate(91.259766 0)"/>
     <use xlink:href="#DejaVuSans-73" transform="translate(154.638672 0)"/>
     <use xlink:href="#DejaVuSans-20" transform="translate(206.738281 0)"/>
     <use xlink:href="#DejaVuSans-70" transform="translate(238.525391 0)"/>
     <use xlink:href="#DejaVuSans-6f" transform="translate(302.001953 0)"/>
     <use xlink:href="#DejaVuSans-73" transform="translate(363.183594 0)"/>
     <use xlink:href="#DejaVuSans-65" transform="translate(415.283203 0)"/>
     <use xlink:href="#DejaVuSans-20" transform="translate(476.806641 0)"/>
     <use xlink:href="#DejaVuSans-64" transform="translate(508.59375 0)"/>
     <use xlink:href="#DejaVuSans-69" transform="translate(572.070312 0)"/>
     <use xlink:href="#DejaVuSans-61" transform="translate(599.853516 0)"/>
     <use xlink:href="#DejaVuSans-67" transform="translate(661.132812 0)"/>
     <use xlink:href="#DejaVuSans-6e" transform="translate(724.609375 0)"/>
     <use xlink:href="#DejaVuSans-6f" transform="translate(787.988281 0)"/>
     <use xlink:href="#DejaVuSans-73" transform="translate(849.169922 0)"/>
     <use xlink:href="#DejaVuSans-74" transform="translate(901.269531 0)"/>
     <use xlink:href="#DejaVuSans-69" transform="translate(940.478516 0)"/>
     <use xlink:href="#DejaVuSans-63" transform="translate(968.261719 0)"/>
    </g>
   </g>
   <g id="text_15">
    <g id="patch_39">
     <path d="M 570.005677 303.709828
L 637.934583 303.709828
Q 641.084583 303.709828 641.084583 300.559828
L 641.084583 281.771484
Q 641.084583 278.621484 637.934583 278.621484
L 570.005677 278.621484
Q 566.855677 278.621484 566.855677 281.771484
L 566.855677 300.559828
Q 566.855677 303.709828 570.005677 303.709828
z
" style="fill: #e8e7f4; stroke: #333333; stroke-linejoin: miter"/>
    </g>
    <!-- Aggregate CSV -->
    <g transform="translate(570.005677 288.610078) scale(0.09 -0.09)">
     <defs>
      <path id="DejaVuSans-53" d="M 3425 4513
L 3425 3897
Q 3066 4069 2747 4153
Q 2428 4238 2131 4238
Q 1616 4238 1336 4038
Q 1056 3838 1056 3469
Q 1056 3159 1242 3001
Q 1428 2844 1947 2747
L 2328 2669
Q 3034 2534 3370 2195
Q 3706 1856 3706 1288
Q 3706 609 3251 259
Q 2797 -91 1919 -91
Q 1588 -91 1214 -16
Q 841 59 441 206
L 441 856
Q 825 641 1194 531
Q 1563 422 1919 422
Q 2459 422 2753 634
Q 3047 847 3047 1241
Q 3047 1584 2836 1778
Q 2625 1972 2144 2069
L 1759 2144
Q 1053 2284 737 2584
Q 422 2884 422 3419
Q 422 4038 858 4394
Q 1294 4750 2059 4750
Q 2388 4750 2728 4690
Q 3069 4631 3425 4513
z
" transform="scale(0.015625)"/>
     </defs>
     <use xlink:href="#DejaVuSans-41"/>
     <use xlink:href="#DejaVuSans-67" transform="translate(68.408203 0)"/>
     <use xlink:href="#DejaVuSans-67" transform="translate(131.884766 0)"/>
     <use xlink:href="#DejaVuSans-72" transform="translate(195.361328 0)"/>
     <use xlink:href="#DejaVuSans-65" transform="translate(234.224609 0)"/>
     <use xlink:href="#DejaVuSans-67" transform="translate(295.748047 0)"/>
     <use xlink:href="#DejaVuSans-61" transform="translate(359.224609 0)"/>
     <use xlink:href="#DejaVuSans-74" transform="translate(420.503906 0)"/>
     <use xlink:href="#DejaVuSans-65" transform="translate(459.712891 0)"/>
     <use xlink:href="#DejaVuSans-20" transform="translate(521.236328 0)"/>
     <use xlink:href="#DejaVuSans-43" transform="translate(553.023438 0)"/>
     <use xlink:href="#DejaVuSans-53" transform="translate(622.847656 0)"/>
     <use xlink:href="#DejaVuSans-56" transform="translate(686.324219 0)"/>
    </g>
    <!-- and plots -->
    <g transform="translate(583.104895 298.688109) scale(0.09 -0.09)">
     <use xlink:href="#DejaVuSans-61"/>
     <use xlink:href="#DejaVuSans-6e" transform="translate(61.279297 0)"/>
     <use xlink:href="#DejaVuSans-64" transform="translate(124.658203 0)"/>
     <use xlink:href="#DejaVuSans-20" transform="translate(188.134766 0)"/>
     <use xlink:href="#DejaVuSans-70" transform="translate(219.921875 0)"/>
     <use xlink:href="#DejaVuSans-6c" transform="translate(283.398438 0)"/>
     <use xlink:href="#DejaVuSans-6f" transform="translate(311.181641 0)"/>
     <use xlink:href="#DejaVuSans-74" transform="translate(372.363281 0)"/>
     <use xlink:href="#DejaVuSans-73" transform="translate(411.572266 0)"/>
    </g>
   </g>
   <g id="text_16">
    <g id="patch_40">
     <path d="M 474.369829 303.709828
L 518.34186 303.709828
Q 521.49186 303.709828 521.49186 300.559828
L 521.49186 281.771484
Q 521.49186 278.621484 518.34186 278.621484
L 474.369829 278.621484
Q 471.219829 278.621484 471.219829 281.771484
L 471.219829 300.559828
Q 471.219829 303.709828 474.369829 303.709828
z
" style="fill: #e8e7f4; stroke: #333333; stroke-linejoin: miter"/>
    </g>
    <!-- Reliability -->
    <g transform="translate(474.369829 288.610078) scale(0.09 -0.09)">
     <use xlink:href="#DejaVuSans-52"/>
     <use xlink:href="#DejaVuSans-65" transform="translate(64.982422 0)"/>
     <use xlink:href="#DejaVuSans-6c" transform="translate(126.505859 0)"/>
     <use xlink:href="#DejaVuSans-69" transform="translate(154.289062 0)"/>
     <use xlink:href="#DejaVuSans-61" transform="translate(182.072266 0)"/>
     <use xlink:href="#DejaVuSans-62" transform="translate(243.351562 0)"/>
     <use xlink:href="#DejaVuSans-69" transform="translate(306.828125 0)"/>
     <use xlink:href="#DejaVuSans-6c" transform="translate(334.611328 0)"/>
     <use xlink:href="#DejaVuSans-69" transform="translate(362.394531 0)"/>
     <use xlink:href="#DejaVuSans-74" transform="translate(390.177734 0)"/>
     <use xlink:href="#DejaVuSans-79" transform="translate(429.386719 0)"/>
    </g>
    <!-- report -->
    <g transform="translate(482.613969 298.688109) scale(0.09 -0.09)">
     <use xlink:href="#DejaVuSans-72"/>
     <use xlink:href="#DejaVuSans-65" transform="translate(38.863281 0)"/>
     <use xlink:href="#DejaVuSans-70" transform="translate(100.386719 0)"/>
     <use xlink:href="#DejaVuSans-6f" transform="translate(163.863281 0)"/>
     <use xlink:href="#DejaVuSans-72" transform="translate(225.044922 0)"/>
     <use xlink:href="#DejaVuSans-74" transform="translate(266.158203 0)"/>
    </g>
   </g>
   <g id="text_17">
    <g id="patch_41">
     <path d="M 353.66898 303.709828
L 423.814137 303.709828
Q 426.964137 303.709828 426.964137 300.559828
L 426.964137 281.771484
Q 426.964137 278.621484 423.814137 278.621484
L 353.66898 278.621484
Q 350.51898 278.621484 350.51898 281.771484
L 350.51898 300.559828
Q 350.51898 303.709828 353.66898 303.709828
z
" style="fill: #e8e7f4; stroke: #333333; stroke-linejoin: miter"/>
    </g>
    <!-- Tracked release -->
    <g transform="translate(353.66898 288.610078) scale(0.09 -0.09)">
     <use xlink:href="#DejaVuSans-54"/>
     <use xlink:href="#DejaVuSans-72" transform="translate(46.333984 0)"/>
     <use xlink:href="#DejaVuSans-61" transform="translate(87.447266 0)"/>
     <use xlink:href="#DejaVuSans-63" transform="translate(148.726562 0)"/>
     <use xlink:href="#DejaVuSans-6b" transform="translate(203.707031 0)"/>
     <use xlink:href="#DejaVuSans-65" transform="translate(257.992188 0)"/>
     <use xlink:href="#DejaVuSans-64" transform="translate(319.515625 0)"/>
     <use xlink:href="#DejaVuSans-20" transform="translate(382.992188 0)"/>
     <use xlink:href="#DejaVuSans-72" transform="translate(414.779297 0)"/>
     <use xlink:href="#DejaVuSans-65" transform="translate(453.642578 0)"/>
     <use xlink:href="#DejaVuSans-6c" transform="translate(515.166016 0)"/>
     <use xlink:href="#DejaVuSans-65" transform="translate(542.949219 0)"/>
     <use xlink:href="#DejaVuSans-61" transform="translate(604.472656 0)"/>
     <use xlink:href="#DejaVuSans-73" transform="translate(665.751953 0)"/>
     <use xlink:href="#DejaVuSans-65" transform="translate(717.851562 0)"/>
    </g>
    <!-- artifacts -->
    <g transform="translate(370.19523 298.688109) scale(0.09 -0.09)">
     <use xlink:href="#DejaVuSans-61"/>
     <use xlink:href="#DejaVuSans-72" transform="translate(61.279297 0)"/>
     <use xlink:href="#DejaVuSans-74" transform="translate(102.392578 0)"/>
     <use xlink:href="#DejaVuSans-69" transform="translate(141.601562 0)"/>
     <use xlink:href="#DejaVuSans-66" transform="translate(169.384766 0)"/>
     <use xlink:href="#DejaVuSans-61" transform="translate(204.589844 0)"/>
     <use xlink:href="#DejaVuSans-63" transform="translate(265.869141 0)"/>
     <use xlink:href="#DejaVuSans-74" transform="translate(320.849609 0)"/>
     <use xlink:href="#DejaVuSans-73" transform="translate(360.058594 0)"/>
    </g>
   </g>
   <g id="text_18">
    <!-- Skill-JEPA-WM Push-T Experiment Flow -->
    <g transform="translate(241.105078 18.597656) scale(0.15 -0.15)">
     <defs>
      <path id="DejaVuSans-78" d="M 3513 3500
L 2247 1797
L 3578 0
L 2900 0
L 1881 1375
L 863 0
L 184 0
L 1544 1831
L 300 3500
L 978 3500
L 1906 2253
L 2834 3500
L 3513 3500
z
" transform="scale(0.015625)"/>
     </defs>
     <use xlink:href="#DejaVuSans-53"/>
     <use xlink:href="#DejaVuSans-6b" transform="translate(63.476562 0)"/>
     <use xlink:href="#DejaVuSans-69" transform="translate(121.386719 0)"/>
     <use xlink:href="#DejaVuSans-6c" transform="translate(149.169922 0)"/>
     <use xlink:href="#DejaVuSans-6c" transform="translate(176.953125 0)"/>
     <use xlink:href="#DejaVuSans-2d" transform="translate(204.736328 0)"/>
     <use xlink:href="#DejaVuSans-4a" transform="translate(246.445312 0)"/>
     <use xlink:href="#DejaVuSans-45" transform="translate(275.9375 0)"/>
     <use xlink:href="#DejaVuSans-50" transform="translate(339.121094 0)"/>
     <use xlink:href="#DejaVuSans-41" transform="translate(393.048828 0)"/>
     <use xlink:href="#DejaVuSans-2d" transform="translate(459.207031 0)"/>
     <use xlink:href="#DejaVuSans-57" transform="translate(491.291016 0)"/>
     <use xlink:href="#DejaVuSans-4d" transform="translate(590.167969 0)"/>
     <use xlink:href="#DejaVuSans-20" transform="translate(676.447266 0)"/>
     <use xlink:href="#DejaVuSans-50" transform="translate(708.234375 0)"/>
     <use xlink:href="#DejaVuSans-75" transform="translate(766.787109 0)"/>
     <use xlink:href="#DejaVuSans-73" transform="translate(830.166016 0)"/>
     <use xlink:href="#DejaVuSans-68" transform="translate(882.265625 0)"/>
     <use xlink:href="#DejaVuSans-2d" transform="translate(945.644531 0)"/>
     <use xlink:href="#DejaVuSans-54" transform="translate(972.603516 0)"/>
     <use xlink:href="#DejaVuSans-20" transform="translate(1033.6875 0)"/>
     <use xlink:href="#DejaVuSans-45" transform="translate(1065.474609 0)"/>
     <use xlink:href="#DejaVuSans-78" transform="translate(1128.658203 0)"/>
     <use xlink:href="#DejaVuSans-70" transform="translate(1187.837891 0)"/>
     <use xlink:href="#DejaVuSans-65" transform="translate(1251.314453 0)"/>
     <use xlink:href="#DejaVuSans-72" transform="translate(1312.837891 0)"/>
     <use xlink:href="#DejaVuSans-69" transform="translate(1353.951172 0)"/>
     <use xlink:href="#DejaVuSans-6d" transform="translate(1381.734375 0)"/>
     <use xlink:href="#DejaVuSans-65" transform="translate(1479.146484 0)"/>
     <use xlink:href="#DejaVuSans-6e" transform="translate(1540.669922 0)"/>
     <use xlink:href="#DejaVuSans-74" transform="translate(1604.048828 0)"/>
     <use xlink:href="#DejaVuSans-20" transform="translate(1643.257812 0)"/>
     <use xlink:href="#DejaVuSans-46" transform="translate(1675.044922 0)"/>
     <use xlink:href="#DejaVuSans-6c" transform="translate(1732.564453 0)"/>
     <use xlink:href="#DejaVuSans-6f" transform="translate(1760.347656 0)"/>
     <use xlink:href="#DejaVuSans-77" transform="translate(1821.529297 0)"/>
    </g>
   </g>
  </g>
 </g>
 <defs>
  <clipPath id="p76a0b1f827">
   <rect x="7.2" y="30.597656" width="753.3" height="410.256"/>
  </clipPath>
 </defs>
</svg>
