<?xml version="1.0" encoding="utf-8" standalone="no"?>
<!DOCTYPE svg PUBLIC "-//W3C//DTD SVG 1.1//EN"
  "http://www.w3.org/Graphics/SVG/1.1/DTD/svg11.dtd">
<svg xmlns:xlink="http://www.w3.org/1999/xlink" width="767.7pt" height="448.053656pt" viewBox="0 0 767.7 448.053656" xmlns="http://www.w3.org/2000/svg" version="1.1">
 <metadata>
  <rdf:RDF xmlns:dc="http://purl.org/dc/elements/1.1/" xmlns:cc="http://creativecommons.org/ns#" xmlns:rdf="http://www.w3.org/1999/02/22-rdf-syntax-ns#">
   <cc:Work>
    <dc:type rdf:resource="http://purl.org/dc/dcmitype/StillImage"/>
    <dc:date>2026-04-25T18:23:53.199795</dc:date>
    <dc:format>image/svg+xml</dc:format>
    <dc:creator>
     <cc:Agent>
      <dc:title>Matplotlib v3.10.8, https://matplotlib.org/</dc:title>
     </cc:Agent>
    </dc:creator>
   </cc:Work>
  </rdf:RDF>
 </metadata>
 <defs>
  <style type="text/css">*{stroke-linejoin: round; stroke-linecap: butt}</style>
 </defs>
 <g id="figure_1">
  <g id="patch_1">
   <path d="M 0 448.053656
L 767.7 448.053656
L 767.7 0
L 0 0
z
" style="fill: #ffffff"/>
  </g>
  <g id="axes_1">
   <g id="patch_2">
    <path d="M 130.250729 91.581656
Q 141.720361 91.581656 152.071958 91.581656
" clip-path="url(#p2615edcb1a)" style="fill: none; stroke: #333333; stroke-linecap: round"/>
    <path d="M 147.271958 89.181656
L 152.071958 91.581656
L 147.271958 93.981656
z
" clip-path="url(#p2615edcb1a)" style="fill: #333333; stroke: #333333; stroke-linecap: round"/>
   </g>
   <g id="patch_3">
    <path d="M 223.187503 91.581656
Q 237.10251 91.581656 249.899483 91.581656
" clip-path="url(#p2615edcb1a)" style="fill: none; stroke: #333333; stroke-linecap: round"/>
    <path d="M 245.099483 89.181656
L 249.899483 91.581656
L 245.099483 93.981656
z
" clip-path="url(#p2615edcb1a)" style="fill: #333333; stroke: #333333; stroke-linecap: round"/>
   </g>
   <g id="patch_4">
    <path d="M 321.021509 91.581656
Q 332.49114 91.581656 342.842738 91.581656
" clip-path="url(#p2615edcb1a)" style="fill: none; stroke: #333333; stroke-linecap: round"/>
    <path d="M 338.042738 89.181656
L 342.842738 91.581656
L 338.042738 93.981656
z
" clip-path="url(#p2615edcb1a)" style="fill: #333333; stroke: #333333; stroke-linecap: round"/>
   </g>
   <g id="patch_5">
    <path d="M 411.913316 79.786783
Q 425.428554 74.949546 437.891148 70.489061
" clip-path="url(#p2615edcb1a)" style="fill: none; stroke: #333333; stroke-linecap: round"/>
    <path d="M 432.563141 69.846919
L 437.891148 70.489061
L 434.18063 74.366181
z
" clip-path="url(#p2615edcb1a)" style="fill: #333333; stroke: #333333; stroke-linecap: round"/>
   </g>
   <g id="patch_6">
    <path d="M 411.913316 103.37653
Q 425.428554 108.213766 437.891148 112.674251
" clip-path="url(#p2615edcb1a)" style="fill: none; stroke: #333333; stroke-linecap: round"/>
    <path d="M 434.18063 108.797132
L 437.891148 112.674251
L 432.563141 113.316394
z
" clip-path="url(#p2615edcb1a)" style="fill: #333333; stroke: #333333; stroke-linecap: round"/>
   </g>
   <g id="patch_7">
    <path d="M 506.897893 58.317656
Q 520.8129 58.317656 533.609873 58.317656
" clip-path="url(#p2615edcb1a)" style="fill: none; stroke: #333333; stroke-linecap: round"/>
    <path d="M 528.809873 55.917656
L 533.609873 58.317656
L 528.809873 60.717656
z
" clip-path="url(#p2615edcb1a)" style="fill: #333333; stroke: #333333; stroke-linecap: round"/>
   </g>
   <g id="patch_8">
    <path d="M 506.897893 124.845656
Q 520.8129 124.845656 533.609873 124.845656
" clip-path="url(#p2615edcb1a)" style="fill: none; stroke: #333333; stroke-linecap: round"/>
    <path d="M 528.809873 122.445656
L 533.609873 124.845656
L 528.809873 127.245656
z
" clip-path="url(#p2615edcb1a)" style="fill: #333333; stroke: #333333; stroke-linecap: round"/>
   </g>
   <g id="patch_9">
    <path d="M 126.264023 107.806079
Q 190.634221 141.478064 254.013741 174.631826
" clip-path="url(#p2615edcb1a)" style="fill: none; stroke: #333333; stroke-linecap: round"/>
    <path d="M 250.872939 170.280348
L 254.013741 174.631826
L 248.648078 174.533581
z
" clip-path="url(#p2615edcb1a)" style="fill: #333333; stroke: #333333; stroke-linecap: round"/>
   </g>
   <g id="patch_10">
    <path d="M 321.021509 191.373656
Q 332.49114 191.373656 342.842738 191.373656
" clip-path="url(#p2615edcb1a)" style="fill: none; stroke: #333333; stroke-linecap: round"/>
    <path d="M 338.042738 188.973656
L 342.842738 191.373656
L 338.042738 193.773656
z
" clip-path="url(#p2615edcb1a)" style="fill: #333333; stroke: #333333; stroke-linecap: round"/>
   </g>
   <g id="patch_11">
    <path d="M 604.727569 58.317656
Q 606.416314 58.317656 606.987025 58.317656
" clip-path="url(#p2615edcb1a)" style="fill: none; stroke: #333333; stroke-linecap: round"/>
    <path d="M 602.187025 55.917656
L 606.987025 58.317656
L 602.187025 60.717656
z
" clip-path="url(#p2615edcb1a)" style="fill: #333333; stroke: #333333; stroke-linecap: round"/>
   </g>
   <g id="patch_12">
    <path d="M 643.102597 93.31551
Q 643.102597 109.080583 643.102597 123.727622
" clip-path="url(#p2615edcb1a)" style="fill: none; stroke: #333333; stroke-linecap: round"/>
    <path d="M 645.502597 118.927622
L 643.102597 123.727622
L 640.702597 118.927622
z
" clip-path="url(#p2615edcb1a)" style="fill: #333333; stroke: #333333; stroke-linecap: round"/>
   </g>
   <g id="patch_13">
    <path d="M 617.175158 148.354192
Q 606.415552 158.10998 596.484208 167.114778
" clip-path="url(#p2615edcb1a)" style="fill: none; stroke: #333333; stroke-linecap: round"/>
    <path d="M 601.652231 165.668563
L 596.484208 167.114778
L 598.42805 162.112631
z
" clip-path="url(#p2615edcb1a)" style="fill: #333333; stroke: #333333; stroke-linecap: round"/>
   </g>
   <g id="patch_14">
    <path d="M 569.729221 159.84351
Q 569.729221 175.608583 569.729221 190.255622
" clip-path="url(#p2615edcb1a)" style="fill: none; stroke: #333333; stroke-linecap: round"/>
    <path d="M 572.129221 185.455622
L 569.729221 190.255622
L 567.329221 185.455622
z
" clip-path="url(#p2615edcb1a)" style="fill: #333333; stroke: #333333; stroke-linecap: round"/>
   </g>
   <g id="patch_15">
    <path d="M 413.956566 191.373656
Q 474.341763 191.373656 533.608927 191.373656
" clip-path="url(#p2615edcb1a)" style="fill: none; stroke: #333333; stroke-linecap: round"/>
    <path d="M 528.808927 188.973656
L 533.608927 191.373656
L 528.808927 193.773656
z
" clip-path="url(#p2615edcb1a)" style="fill: #333333; stroke: #333333; stroke-linecap: round"/>
   </g>
   <g id="patch_16">
    <path d="M 536.989979 203.742336
Q 474.343795 227.40967 412.743495 250.681876
" clip-path="url(#p2615edcb1a)" style="fill: none; stroke: #333333; stroke-linecap: round"/>
    <path d="M 418.08193 251.230612
L 412.743495 250.681876
L 416.385544 246.740369
z
" clip-path="url(#p2615edcb1a)" style="fill: #333333; stroke: #333333; stroke-linecap: round"/>
   </g>
   <g id="patch_17">
    <path d="M 343.960317 263.445656
Q 283.57512 263.445656 224.307956 263.445656
" clip-path="url(#p2615edcb1a)" style="fill: none; stroke: #333333; stroke-linecap: round"/>
    <path d="M 229.107956 265.845656
L 224.307956 263.445656
L 229.107956 261.045656
z
" clip-path="url(#p2615edcb1a)" style="fill: #333333; stroke: #333333; stroke-linecap: round"/>
   </g>
   <g id="patch_18">
    <path d="M 188.187662 228.443996
Q 188.187662 177.511141 188.187662 127.696319
" clip-path="url(#p2615edcb1a)" style="fill: none; stroke: #333333; stroke-linecap: round"/>
    <path d="M 185.787662 132.496319
L 188.187662 127.696319
L 190.587662 132.496319
z
" clip-path="url(#p2615edcb1a)" style="fill: #333333; stroke: #333333; stroke-linecap: round"/>
   </g>
   <g id="text_1">
    <g id="patch_19">
     <path d="M 51.628286 104.125828
L 138.867818 104.125828
Q 142.017818 104.125828 142.017818 100.975828
L 142.017818 82.187484
Q 142.017818 79.037484 138.867818 79.037484
L 51.628286 79.037484
Q 48.478286 79.037484 48.478286 82.187484
L 48.478286 100.975828
Q 48.478286 104.125828 51.628286 104.125828
z
" style="fill: #eef4f7; stroke: #333333; stroke-linejoin: miter"/>
    </g>
    <!-- Push-T HDF5 -->
    <g transform="translate(66.873443 89.026078) scale(0.09 -0.09)">
     <defs>
      <path id="DejaVuSans-50" d="M 1259 4147
L 1259 2394
L 2053 2394
Q 2494 2394 2734 2622
Q 2975 2850 2975 3272
Q 2975 3691 2734 3919
Q 2494 4147 2053 4147
L 1259 4147
z
M 628 4666
L 2053 4666
Q 2838 4666 3239 4311
Q 3641 3956 3641 3272
Q 3641 2581 3239 2228
Q 2838 1875 2053 1875
L 1259 1875
L 1259 0
L 628 0
L 628 4666
z
" transform="scale(0.015625)"/>
      <path id="DejaVuSans-75" d="M 544 1381
L 544 3500
L 1119 3500
L 1119 1403
Q 1119 906 1312 657
Q 1506 409 1894 409
Q 2359 409 2629 706
Q 2900 1003 2900 1516
L 2900 3500
L 3475 3500
L 3475 0
L 2900 0
L 2900 538
Q 2691 219 2414 64
Q 2138 -91 1772 -91
Q 1169 -91 856 284
Q 544 659 544 1381
z
M 1991 3584
L 1991 3584
z
" transform="scale(0.015625)"/>
      <path id="DejaVuSans-73" d="M 2834 3397
L 2834 2853
Q 2591 2978 2328 3040
Q 2066 3103 1784 3103
Q 1356 3103 1142 2972
Q 928 2841 928 2578
Q 928 2378 1081 2264
Q 1234 2150 1697 2047
L 1894 2003
Q 2506 1872 2764 1633
Q 3022 1394 3022 966
Q 3022 478 2636 193
Q 2250 -91 1575 -91
Q 1294 -91 989 -36
Q 684 19 347 128
L 347 722
Q 666 556 975 473
Q 1284 391 1588 391
Q 1994 391 2212 530
Q 2431 669 2431 922
Q 2431 1156 2273 1281
Q 2116 1406 1581 1522
L 1381 1569
Q 847 1681 609 1914
Q 372 2147 372 2553
Q 372 3047 722 3315
Q 1072 3584 1716 3584
Q 2034 3584 2315 3537
Q 2597 3491 2834 3397
z
" transform="scale(0.015625)"/>
      <path id="DejaVuSans-68" d="M 3513 2113
L 3513 0
L 2938 0
L 2938 2094
Q 2938 2591 2744 2837
Q 2550 3084 2163 3084
Q 1697 3084 1428 2787
Q 1159 2491 1159 1978
L 1159 0
L 581 0
L 581 4863
L 1159 4863
L 1159 2956
Q 1366 3272 1645 3428
Q 1925 3584 2291 3584
Q 2894 3584 3203 3211
Q 3513 2838 3513 2113
z
" transform="scale(0.015625)"/>
      <path id="DejaVuSans-2d" d="M 313 2009
L 1997 2009
L 1997 1497
L 313 1497
L 313 2009
z
" transform="scale(0.015625)"/>
      <path id="DejaVuSans-54" d="M -19 4666
L 3928 4666
L 3928 4134
L 2272 4134
L 2272 0
L 1638 0
L 1638 4134
L -19 4134
L -19 4666
z
" transform="scale(0.015625)"/>
      <path id="DejaVuSans-20" transform="scale(0.015625)"/>
      <path id="DejaVuSans-48" d="M 628 4666
L 1259 4666
L 1259 2753
L 3553 2753
L 3553 4666
L 4184 4666
L 4184 0
L 3553 0
L 3553 2222
L 1259 2222
L 1259 0
L 628 0
L 628 4666
z
" transform="scale(0.015625)"/>
      <path id="DejaVuSans-44" d="M 1259 4147
L 1259 519
L 2022 519
Q 2988 519 3436 956
Q 3884 1394 3884 2338
Q 3884 3275 3436 3711
Q 2988 4147 2022 4147
L 1259 4147
z
M 628 4666
L 1925 4666
Q 3281 4666 3915 4102
Q 4550 3538 4550 2338
Q 4550 1131 3912 565
Q 3275 0 1925 0
L 628 0
L 628 4666
z
" transform="scale(0.015625)"/>
      <path id="DejaVuSans-46" d="M 628 4666
L 3309 4666
L 3309 4134
L 1259 4134
L 1259 2759
L 3109 2759
L 3109 2228
L 1259 2228
L 1259 0
L 628 0
L 628 4666
z
" transform="scale(0.015625)"/>
      <path id="DejaVuSans-35" d="M 691 4666
L 3169 4666
L 3169 4134
L 1269 4134
L 1269 2991
Q 1406 3038 1543 3061
Q 1681 3084 1819 3084
Q 2600 3084 3056 2656
Q 3513 2228 3513 1497
Q 3513 744 3044 326
Q 2575 -91 1722 -91
Q 1428 -91 1123 -41
Q 819 9 494 109
L 494 744
Q 775 591 1075 516
Q 1375 441 1709 441
Q 2250 441 2565 725
Q 2881 1009 2881 1497
Q 2881 1984 2565 2268
Q 2250 2553 1709 2553
Q 1456 2553 1204 2497
Q 953 2441 691 2322
L 691 4666
z
" transform="scale(0.015625)"/>
     </defs>
     <use xlink:href="#DejaVuSans-50"/>
     <use xlink:href="#DejaVuSans-75" transform="translate(58.552734 0)"/>
     <use xlink:href="#DejaVuSans-73" transform="translate(121.931641 0)"/>
     <use xlink:href="#DejaVuSans-68" transform="translate(174.03125 0)"/>
     <use xlink:href="#DejaVuSans-2d" transform="translate(237.410156 0)"/>
     <use xlink:href="#DejaVuSans-54" transform="translate(264.369141 0)"/>
     <use xlink:href="#DejaVuSans-20" transform="translate(325.453125 0)"/>
     <use xlink:href="#DejaVuSans-48" transform="translate(357.240234 0)"/>
     <use xlink:href="#DejaVuSans-44" transform="translate(432.435547 0)"/>
     <use xlink:href="#DejaVuSans-46" transform="translate(509.4375 0)"/>
     <use xlink:href="#DejaVuSans-35" transform="translate(566.957031 0)"/>
    </g>
    <!-- pixels/actions/state -->
    <g transform="translate(51.628286 99.104109) scale(0.09 -0.09)">
     <defs>
      <path id="DejaVuSans-70" d="M 1159 525
L 1159 -1331
L 581 -1331
L 581 3500
L 1159 3500
L 1159 2969
Q 1341 3281 1617 3432
Q 1894 3584 2278 3584
Q 2916 3584 3314 3078
Q 3713 2572 3713 1747
Q 3713 922 3314 415
Q 2916 -91 2278 -91
Q 1894 -91 1617 61
Q 1341 213 1159 525
z
M 3116 1747
Q 3116 2381 2855 2742
Q 2594 3103 2138 3103
Q 1681 3103 1420 2742
Q 1159 2381 1159 1747
Q 1159 1113 1420 752
Q 1681 391 2138 391
Q 2594 391 2855 752
Q 3116 1113 3116 1747
z
" transform="scale(0.015625)"/>
      <path id="DejaVuSans-69" d="M 603 3500
L 1178 3500
L 1178 0
L 603 0
L 603 3500
z
M 603 4863
L 1178 4863
L 1178 4134
L 603 4134
L 603 4863
z
" transform="scale(0.015625)"/>
      <path id="DejaVuSans-78" d="M 3513 3500
L 2247 1797
L 3578 0
L 2900 0
L 1881 1375
L 863 0
L 184 0
L 1544 1831
L 300 3500
L 978 3500
L 1906 2253
L 2834 3500
L 3513 3500
z
" transform="scale(0.015625)"/>
      <path id="DejaVuSans-65" d="M 3597 1894
L 3597 1613
L 953 1613
Q 991 1019 1311 708
Q 1631 397 2203 397
Q 2534 397 2845 478
Q 3156 559 3463 722
L 3463 178
Q 3153 47 2828 -22
Q 2503 -91 2169 -91
Q 1331 -91 842 396
Q 353 884 353 1716
Q 353 2575 817 3079
Q 1281 3584 2069 3584
Q 2775 3584 3186 3129
Q 3597 2675 3597 1894
z
M 3022 2063
Q 3016 2534 2758 2815
Q 2500 3097 2075 3097
Q 1594 3097 1305 2825
Q 1016 2553 972 2059
L 3022 2063
z
" transform="scale(0.015625)"/>
      <path id="DejaVuSans-6c" d="M 603 4863
L 1178 4863
L 1178 0
L 603 0
L 603 4863
z
" transform="scale(0.015625)"/>
      <path id="DejaVuSans-2f" d="M 1625 4666
L 2156 4666
L 531 -594
L 0 -594
L 1625 4666
z
" transform="scale(0.015625)"/>
      <path id="DejaVuSans-61" d="M 2194 1759
Q 1497 1759 1228 1600
Q 959 1441 959 1056
Q 959 750 1161 570
Q 1363 391 1709 391
Q 2188 391 2477 730
Q 2766 1069 2766 1631
L 2766 1759
L 2194 1759
z
M 3341 1997
L 3341 0
L 2766 0
L 2766 531
Q 2569 213 2275 61
Q 1981 -91 1556 -91
Q 1019 -91 701 211
Q 384 513 384 1019
Q 384 1609 779 1909
Q 1175 2209 1959 2209
L 2766 2209
L 2766 2266
Q 2766 2663 2505 2880
Q 2244 3097 1772 3097
Q 1472 3097 1187 3025
Q 903 2953 641 2809
L 641 3341
Q 956 3463 1253 3523
Q 1550 3584 1831 3584
Q 2591 3584 2966 3190
Q 3341 2797 3341 1997
z
" transform="scale(0.015625)"/>
      <path id="DejaVuSans-63" d="M 3122 3366
L 3122 2828
Q 2878 2963 2633 3030
Q 2388 3097 2138 3097
Q 1578 3097 1268 2742
Q 959 2388 959 1747
Q 959 1106 1268 751
Q 1578 397 2138 397
Q 2388 397 2633 464
Q 2878 531 3122 666
L 3122 134
Q 2881 22 2623 -34
Q 2366 -91 2075 -91
Q 1284 -91 818 406
Q 353 903 353 1747
Q 353 2603 823 3093
Q 1294 3584 2113 3584
Q 2378 3584 2631 3529
Q 2884 3475 3122 3366
z
" transform="scale(0.015625)"/>
      <path id="DejaVuSans-74" d="M 1172 4494
L 1172 3500
L 2356 3500
L 2356 3053
L 1172 3053
L 1172 1153
Q 1172 725 1289 603
Q 1406 481 1766 481
L 2356 481
L 2356 0
L 1766 0
Q 1100 0 847 248
Q 594 497 594 1153
L 594 3053
L 172 3053
L 172 3500
L 594 3500
L 594 4494
L 1172 4494
z
" transform="scale(0.015625)"/>
      <path id="DejaVuSans-6f" d="M 1959 3097
Q 1497 3097 1228 2736
Q 959 2375 959 1747
Q 959 1119 1226 758
Q 1494 397 1959 397
Q 2419 397 2687 759
Q 2956 1122 2956 1747
Q 2956 2369 2687 2733
Q 2419 3097 1959 3097
z
M 1959 3584
Q 2709 3584 3137 3096
Q 3566 2609 3566 1747
Q 3566 888 3137 398
Q 2709 -91 1959 -91
Q 1206 -91 779 398
Q 353 888 353 1747
Q 353 2609 779 3096
Q 1206 3584 1959 3584
z
" transform="scale(0.015625)"/>
      <path id="DejaVuSans-6e" d="M 3513 2113
L 3513 0
L 2938 0
L 2938 2094
Q 2938 2591 2744 2837
Q 2550 3084 2163 3084
Q 1697 3084 1428 2787
Q 1159 2491 1159 1978
L 1159 0
L 581 0
L 581 3500
L 1159 3500
L 1159 2956
Q 1366 3272 1645 3428
Q 1925 3584 2291 3584
Q 2894 3584 3203 3211
Q 3513 2838 3513 2113
z
" transform="scale(0.015625)"/>
     </defs>
     <use xlink:href="#DejaVuSans-70"/>
     <use xlink:href="#DejaVuSans-69" transform="translate(63.476562 0)"/>
     <use xlink:href="#DejaVuSans-78" transform="translate(91.259766 0)"/>
     <use xlink:href="#DejaVuSans-65" transform="translate(147.314453 0)"/>
     <use xlink:href="#DejaVuSans-6c" transform="translate(208.837891 0)"/>
     <use xlink:href="#DejaVuSans-73" transform="translate(236.621094 0)"/>
     <use xlink:href="#DejaVuSans-2f" transform="translate(288.720703 0)"/>
     <use xlink:href="#DejaVuSans-61" transform="translate(322.412109 0)"/>
     <use xlink:href="#DejaVuSans-63" transform="translate(383.691406 0)"/>
     <use xlink:href="#DejaVuSans-74" transform="translate(438.671875 0)"/>
     <use xlink:href="#DejaVuSans-69" transform="translate(477.880859 0)"/>
     <use xlink:href="#DejaVuSans-6f" transform="translate(505.664062 0)"/>
     <use xlink:href="#DejaVuSans-6e" transform="translate(566.845703 0)"/>
     <use xlink:href="#DejaVuSans-73" transform="translate(630.224609 0)"/>
     <use xlink:href="#DejaVuSans-2f" transform="translate(682.324219 0)"/>
     <use xlink:href="#DejaVuSans-73" transform="translate(716.015625 0)"/>
     <use xlink:href="#DejaVuSans-74" transform="translate(768.115234 0)"/>
     <use xlink:href="#DejaVuSans-61" transform="translate(807.324219 0)"/>
     <use xlink:href="#DejaVuSans-74" transform="translate(868.603516 0)"/>
     <use xlink:href="#DejaVuSans-65" transform="translate(907.8125 0)"/>
    </g>
   </g>
   <g id="text_2">
    <g id="patch_20">
     <path d="M 153.823131 104.125828
L 222.552194 104.125828
Q 225.702194 104.125828 225.702194 100.975828
L 225.702194 82.187484
Q 225.702194 79.037484 222.552194 79.037484
L 153.823131 79.037484
Q 150.673131 79.037484 150.673131 82.187484
L 150.673131 100.975828
Q 150.673131 104.125828 153.823131 104.125828
z
" style="fill: #eef4f7; stroke: #333333; stroke-linejoin: miter"/>
    </g>
    <!-- Causal 2-frame -->
    <g transform="translate(153.823131 89.026078) scale(0.09 -0.09)">
     <defs>
      <path id="DejaVuSans-43" d="M 4122 4306
L 4122 3641
Q 3803 3938 3442 4084
Q 3081 4231 2675 4231
Q 1875 4231 1450 3742
Q 1025 3253 1025 2328
Q 1025 1406 1450 917
Q 1875 428 2675 428
Q 3081 428 3442 575
Q 3803 722 4122 1019
L 4122 359
Q 3791 134 3420 21
Q 3050 -91 2638 -91
Q 1578 -91 968 557
Q 359 1206 359 2328
Q 359 3453 968 4101
Q 1578 4750 2638 4750
Q 3056 4750 3426 4639
Q 3797 4528 4122 4306
z
" transform="scale(0.015625)"/>
      <path id="DejaVuSans-32" d="M 1228 531
L 3431 531
L 3431 0
L 469 0
L 469 531
Q 828 903 1448 1529
Q 2069 2156 2228 2338
Q 2531 2678 2651 2914
Q 2772 3150 2772 3378
Q 2772 3750 2511 3984
Q 2250 4219 1831 4219
Q 1534 4219 1204 4116
Q 875 4013 500 3803
L 500 4441
Q 881 4594 1212 4672
Q 1544 4750 1819 4750
Q 2544 4750 2975 4387
Q 3406 4025 3406 3419
Q 3406 3131 3298 2873
Q 3191 2616 2906 2266
Q 2828 2175 2409 1742
Q 1991 1309 1228 531
z
" transform="scale(0.015625)"/>
      <path id="DejaVuSans-66" d="M 2375 4863
L 2375 4384
L 1825 4384
Q 1516 4384 1395 4259
Q 1275 4134 1275 3809
L 1275 3500
L 2222 3500
L 2222 3053
L 1275 3053
L 1275 0
L 697 0
L 697 3053
L 147 3053
L 147 3500
L 697 3500
L 697 3744
Q 697 4328 969 4595
Q 1241 4863 1831 4863
L 2375 4863
z
" transform="scale(0.015625)"/>
      <path id="DejaVuSans-72" d="M 2631 2963
Q 2534 3019 2420 3045
Q 2306 3072 2169 3072
Q 1681 3072 1420 2755
Q 1159 2438 1159 1844
L 1159 0
L 581 0
L 581 3500
L 1159 3500
L 1159 2956
Q 1341 3275 1631 3429
Q 1922 3584 2338 3584
Q 2397 3584 2469 3576
Q 2541 3569 2628 3553
L 2631 2963
z
" transform="scale(0.015625)"/>
      <path id="DejaVuSans-6d" d="M 3328 2828
Q 3544 3216 3844 3400
Q 4144 3584 4550 3584
Q 5097 3584 5394 3201
Q 5691 2819 5691 2113
L 5691 0
L 5113 0
L 5113 2094
Q 5113 2597 4934 2840
Q 4756 3084 4391 3084
Q 3944 3084 3684 2787
Q 3425 2491 3425 1978
L 3425 0
L 2847 0
L 2847 2094
Q 2847 2600 2669 2842
Q 2491 3084 2119 3084
Q 1678 3084 1418 2786
Q 1159 2488 1159 1978
L 1159 0
L 581 0
L 581 3500
L 1159 3500
L 1159 2956
Q 1356 3278 1631 3431
Q 1906 3584 2284 3584
Q 2666 3584 2933 3390
Q 3200 3197 3328 2828
z
" transform="scale(0.015625)"/>
     </defs>
     <use xlink:href="#DejaVuSans-43"/>
     <use xlink:href="#DejaVuSans-61" transform="translate(69.824219 0)"/>
     <use xlink:href="#DejaVuSans-75" transform="translate(131.103516 0)"/>
     <use xlink:href="#DejaVuSans-73" transform="translate(194.482422 0)"/>
     <use xlink:href="#DejaVuSans-61" transform="translate(246.582031 0)"/>
     <use xlink:href="#DejaVuSans-6c" transform="translate(307.861328 0)"/>
     <use xlink:href="#DejaVuSans-20" transform="translate(335.644531 0)"/>
     <use xlink:href="#DejaVuSans-32" transform="translate(367.431641 0)"/>
     <use xlink:href="#DejaVuSans-2d" transform="translate(431.054688 0)"/>
     <use xlink:href="#DejaVuSans-66" transform="translate(467.138672 0)"/>
     <use xlink:href="#DejaVuSans-72" transform="translate(502.34375 0)"/>
     <use xlink:href="#DejaVuSans-61" transform="translate(543.457031 0)"/>
     <use xlink:href="#DejaVuSans-6d" transform="translate(604.736328 0)"/>
     <use xlink:href="#DejaVuSans-65" transform="translate(702.148438 0)"/>
    </g>
    <!-- clip builder -->
    <g transform="translate(163.24149 99.104109) scale(0.09 -0.09)">
     <defs>
      <path id="DejaVuSans-62" d="M 3116 1747
Q 3116 2381 2855 2742
Q 2594 3103 2138 3103
Q 1681 3103 1420 2742
Q 1159 2381 1159 1747
Q 1159 1113 1420 752
Q 1681 391 2138 391
Q 2594 391 2855 752
Q 3116 1113 3116 1747
z
M 1159 2969
Q 1341 3281 1617 3432
Q 1894 3584 2278 3584
Q 2916 3584 3314 3078
Q 3713 2572 3713 1747
Q 3713 922 3314 415
Q 2916 -91 2278 -91
Q 1894 -91 1617 61
Q 1341 213 1159 525
L 1159 0
L 581 0
L 581 4863
L 1159 4863
L 1159 2969
z
" transform="scale(0.015625)"/>
      <path id="DejaVuSans-64" d="M 2906 2969
L 2906 4863
L 3481 4863
L 3481 0
L 2906 0
L 2906 525
Q 2725 213 2448 61
Q 2172 -91 1784 -91
Q 1150 -91 751 415
Q 353 922 353 1747
Q 353 2572 751 3078
Q 1150 3584 1784 3584
Q 2172 3584 2448 3432
Q 2725 3281 2906 2969
z
M 947 1747
Q 947 1113 1208 752
Q 1469 391 1925 391
Q 2381 391 2643 752
Q 2906 1113 2906 1747
Q 2906 2381 2643 2742
Q 2381 3103 1925 3103
Q 1469 3103 1208 2742
Q 947 2381 947 1747
z
" transform="scale(0.015625)"/>
     </defs>
     <use xlink:href="#DejaVuSans-63"/>
     <use xlink:href="#DejaVuSans-6c" transform="translate(54.980469 0)"/>
     <use xlink:href="#DejaVuSans-69" transform="translate(82.763672 0)"/>
     <use xlink:href="#DejaVuSans-70" transform="translate(110.546875 0)"/>
     <use xlink:href="#DejaVuSans-20" transform="translate(174.023438 0)"/>
     <use xlink:href="#DejaVuSans-62" transform="translate(205.810547 0)"/>
     <use xlink:href="#DejaVuSans-75" transform="translate(269.287109 0)"/>
     <use xlink:href="#DejaVuSans-69" transform="translate(332.666016 0)"/>
     <use xlink:href="#DejaVuSans-6c" transform="translate(360.449219 0)"/>
     <use xlink:href="#DejaVuSans-64" transform="translate(388.232422 0)"/>
     <use xlink:href="#DejaVuSans-65" transform="translate(451.708984 0)"/>
     <use xlink:href="#DejaVuSans-72" transform="translate(513.232422 0)"/>
    </g>
   </g>
   <g id="text_3">
    <g id="patch_21">
     <path d="M 252.612659 104.125828
L 319.425003 104.125828
Q 322.575003 104.125828 322.575003 100.975828
L 322.575003 82.187484
Q 322.575003 79.037484 319.425003 79.037484
L 252.612659 79.037484
Q 249.462659 79.037484 249.462659 82.187484
L 249.462659 100.975828
Q 249.462659 104.125828 252.612659 104.125828
z
" style="fill: #e7f1df; stroke: #333333; stroke-linejoin: miter"/>
    </g>
    <!-- Frozen V-JEPA2 -->
    <g transform="translate(252.612659 89.026078) scale(0.09 -0.09)">
     <defs>
      <path id="DejaVuSans-7a" d="M 353 3500
L 3084 3500
L 3084 2975
L 922 459
L 3084 459
L 3084 0
L 275 0
L 275 525
L 2438 3041
L 353 3041
L 353 3500
z
" transform="scale(0.015625)"/>
      <path id="DejaVuSans-56" d="M 1831 0
L 50 4666
L 709 4666
L 2188 738
L 3669 4666
L 4325 4666
L 2547 0
L 1831 0
z
" transform="scale(0.015625)"/>
      <path id="DejaVuSans-4a" d="M 628 4666
L 1259 4666
L 1259 325
Q 1259 -519 939 -900
Q 619 -1281 -91 -1281
L -331 -1281
L -331 -750
L -134 -750
Q 284 -750 456 -515
Q 628 -281 628 325
L 628 4666
z
" transform="scale(0.015625)"/>
      <path id="DejaVuSans-45" d="M 628 4666
L 3578 4666
L 3578 4134
L 1259 4134
L 1259 2753
L 3481 2753
L 3481 2222
L 1259 2222
L 1259 531
L 3634 531
L 3634 0
L 628 0
L 628 4666
z
" transform="scale(0.015625)"/>
      <path id="DejaVuSans-41" d="M 2188 4044
L 1331 1722
L 3047 1722
L 2188 4044
z
M 1831 4666
L 2547 4666
L 4325 0
L 3669 0
L 3244 1197
L 1141 1197
L 716 0
L 50 0
L 1831 4666
z
" transform="scale(0.015625)"/>
     </defs>
     <use xlink:href="#DejaVuSans-46"/>
     <use xlink:href="#DejaVuSans-72" transform="translate(50.269531 0)"/>
     <use xlink:href="#DejaVuSans-6f" transform="translate(89.132812 0)"/>
     <use xlink:href="#DejaVuSans-7a" transform="translate(150.314453 0)"/>
     <use xlink:href="#DejaVuSans-65" transform="translate(202.804688 0)"/>
     <use xlink:href="#DejaVuSans-6e" transform="translate(264.328125 0)"/>
     <use xlink:href="#DejaVuSans-20" transform="translate(327.707031 0)"/>
     <use xlink:href="#DejaVuSans-56" transform="translate(359.494141 0)"/>
     <use xlink:href="#DejaVuSans-2d" transform="translate(422.027344 0)"/>
     <use xlink:href="#DejaVuSans-4a" transform="translate(463.736328 0)"/>
     <use xlink:href="#DejaVuSans-45" transform="translate(493.228516 0)"/>
     <use xlink:href="#DejaVuSans-50" transform="translate(556.412109 0)"/>
     <use xlink:href="#DejaVuSans-41" transform="translate(610.339844 0)"/>
     <use xlink:href="#DejaVuSans-32" transform="translate(678.748047 0)"/>
    </g>
    <!-- encoder -->
    <g transform="translate(267.694691 99.104109) scale(0.09 -0.09)">
     <use xlink:href="#DejaVuSans-65"/>
     <use xlink:href="#DejaVuSans-6e" transform="translate(61.523438 0)"/>
     <use xlink:href="#DejaVuSans-63" transform="translate(124.902344 0)"/>
     <use xlink:href="#DejaVuSans-6f" transform="translate(179.882812 0)"/>
     <use xlink:href="#DejaVuSans-64" transform="translate(241.064453 0)"/>
     <use xlink:href="#DejaVuSans-65" transform="translate(304.541016 0)"/>
     <use xlink:href="#DejaVuSans-72" transform="translate(366.064453 0)"/>
    </g>
   </g>
   <g id="text_4">
    <g id="patch_22">
     <path d="M 347.049223 99.086813
L 410.86766 99.086813
Q 414.01766 99.086813 414.01766 95.936813
L 414.01766 87.2265
Q 414.01766 84.0765 410.86766 84.0765
L 347.049223 84.0765
Q 343.899223 84.0765 343.899223 87.2265
L 343.899223 95.936813
Q 343.899223 99.086813 347.049223 99.086813
z
" style="fill: #e7f1df; stroke: #333333; stroke-linejoin: miter"/>
    </g>
    <!-- StateProjector -->
    <g transform="translate(347.049223 94.065094) scale(0.09 -0.09)">
     <defs>
      <path id="DejaVuSans-53" d="M 3425 4513
L 3425 3897
Q 3066 4069 2747 4153
Q 2428 4238 2131 4238
Q 1616 4238 1336 4038
Q 1056 3838 1056 3469
Q 1056 3159 1242 3001
Q 1428 2844 1947 2747
L 2328 2669
Q 3034 2534 3370 2195
Q 3706 1856 3706 1288
Q 3706 609 3251 259
Q 2797 -91 1919 -91
Q 1588 -91 1214 -16
Q 841 59 441 206
L 441 856
Q 825 641 1194 531
Q 1563 422 1919 422
Q 2459 422 2753 634
Q 3047 847 3047 1241
Q 3047 1584 2836 1778
Q 2625 1972 2144 2069
L 1759 2144
Q 1053 2284 737 2584
Q 422 2884 422 3419
Q 422 4038 858 4394
Q 1294 4750 2059 4750
Q 2388 4750 2728 4690
Q 3069 4631 3425 4513
z
" transform="scale(0.015625)"/>
      <path id="DejaVuSans-6a" d="M 603 3500
L 1178 3500
L 1178 -63
Q 1178 -731 923 -1031
Q 669 -1331 103 -1331
L -116 -1331
L -116 -844
L 38 -844
Q 366 -844 484 -692
Q 603 -541 603 -63
L 603 3500
z
M 603 4863
L 1178 4863
L 1178 4134
L 603 4134
L 603 4863
z
" transform="scale(0.015625)"/>
     </defs>
     <use xlink:href="#DejaVuSans-53"/>
     <use xlink:href="#DejaVuSans-74" transform="translate(63.476562 0)"/>
     <use xlink:href="#DejaVuSans-61" transform="translate(102.685547 0)"/>
     <use xlink:href="#DejaVuSans-74" transform="translate(163.964844 0)"/>
     <use xlink:href="#DejaVuSans-65" transform="translate(203.173828 0)"/>
     <use xlink:href="#DejaVuSans-50" transform="translate(264.697266 0)"/>
     <use xlink:href="#DejaVuSans-72" transform="translate(323.25 0)"/>
     <use xlink:href="#DejaVuSans-6f" transform="translate(362.113281 0)"/>
     <use xlink:href="#DejaVuSans-6a" transform="translate(423.294922 0)"/>
     <use xlink:href="#DejaVuSans-65" transform="translate(451.078125 0)"/>
     <use xlink:href="#DejaVuSans-63" transform="translate(512.601562 0)"/>
     <use xlink:href="#DejaVuSans-74" transform="translate(567.582031 0)"/>
     <use xlink:href="#DejaVuSans-6f" transform="translate(606.791016 0)"/>
     <use xlink:href="#DejaVuSans-72" transform="translate(667.972656 0)"/>
    </g>
   </g>
   <g id="text_5">
    <g id="patch_23">
     <path d="M 450.366958 70.986984
L 493.429146 70.986984
Q 496.579146 70.986984 496.579146 67.836984
L 496.579146 48.548016
Q 496.579146 45.398016 493.429146 45.398016
L 450.366958 45.398016
Q 447.216958 45.398016 447.216958 48.548016
L 447.216958 67.836984
Q 447.216958 70.986984 450.366958 70.986984
z
" style="fill: #f8f0d9; stroke: #333333; stroke-linejoin: miter"/>
    </g>
    <!-- z_t global -->
    <g transform="translate(450.366958 55.636922) scale(0.09 -0.09)">
     <defs>
      <path id="DejaVuSans-5f" d="M 3263 -1063
L 3263 -1509
L -63 -1509
L -63 -1063
L 3263 -1063
z
" transform="scale(0.015625)"/>
      <path id="DejaVuSans-67" d="M 2906 1791
Q 2906 2416 2648 2759
Q 2391 3103 1925 3103
Q 1463 3103 1205 2759
Q 947 2416 947 1791
Q 947 1169 1205 825
Q 1463 481 1925 481
Q 2391 481 2648 825
Q 2906 1169 2906 1791
z
M 3481 434
Q 3481 -459 3084 -895
Q 2688 -1331 1869 -1331
Q 1566 -1331 1297 -1286
Q 1028 -1241 775 -1147
L 775 -588
Q 1028 -725 1275 -790
Q 1522 -856 1778 -856
Q 2344 -856 2625 -561
Q 2906 -266 2906 331
L 2906 616
Q 2728 306 2450 153
Q 2172 0 1784 0
Q 1141 0 747 490
Q 353 981 353 1791
Q 353 2603 747 3093
Q 1141 3584 1784 3584
Q 2172 3584 2450 3431
Q 2728 3278 2906 2969
L 2906 3500
L 3481 3500
L 3481 434
z
" transform="scale(0.015625)"/>
     </defs>
     <use xlink:href="#DejaVuSans-7a"/>
     <use xlink:href="#DejaVuSans-5f" transform="translate(52.490234 0)"/>
     <use xlink:href="#DejaVuSans-74" transform="translate(102.490234 0)"/>
     <use xlink:href="#DejaVuSans-20" transform="translate(141.699219 0)"/>
     <use xlink:href="#DejaVuSans-67" transform="translate(173.486328 0)"/>
     <use xlink:href="#DejaVuSans-6c" transform="translate(236.962891 0)"/>
     <use xlink:href="#DejaVuSans-6f" transform="translate(264.746094 0)"/>
     <use xlink:href="#DejaVuSans-62" transform="translate(325.927734 0)"/>
     <use xlink:href="#DejaVuSans-61" transform="translate(389.404297 0)"/>
     <use xlink:href="#DejaVuSans-6c" transform="translate(450.683594 0)"/>
    </g>
    <!-- latent -->
    <g transform="translate(458.741177 65.965266) scale(0.09 -0.09)">
     <use xlink:href="#DejaVuSans-6c"/>
     <use xlink:href="#DejaVuSans-61" transform="translate(27.783203 0)"/>
     <use xlink:href="#DejaVuSans-74" transform="translate(89.0625 0)"/>
     <use xlink:href="#DejaVuSans-65" transform="translate(128.271484 0)"/>
     <use xlink:href="#DejaVuSans-6e" transform="translate(189.794922 0)"/>
     <use xlink:href="#DejaVuSans-74" transform="translate(253.173828 0)"/>
    </g>
   </g>
   <g id="text_6">
    <g id="patch_24">
     <path d="M 449.128755 137.514984
L 494.667349 137.514984
Q 497.817349 137.514984 497.817349 134.364984
L 497.817349 115.076016
Q 497.817349 111.926016 494.667349 111.926016
L 449.128755 111.926016
Q 445.978755 111.926016 445.978755 115.076016
L 445.978755 134.364984
Q 445.978755 137.514984 449.128755 137.514984
z
" style="fill: #f8f0d9; stroke: #333333; stroke-linejoin: miter"/>
    </g>
    <!-- s_t spatial -->
    <g transform="translate(449.128755 122.164922) scale(0.09 -0.09)">
     <use xlink:href="#DejaVuSans-73"/>
     <use xlink:href="#DejaVuSans-5f" transform="translate(52.099609 0)"/>
     <use xlink:href="#DejaVuSans-74" transform="translate(102.099609 0)"/>
     <use xlink:href="#DejaVuSans-20" transform="translate(141.308594 0)"/>
     <use xlink:href="#DejaVuSans-73" transform="translate(173.095703 0)"/>
     <use xlink:href="#DejaVuSans-70" transform="translate(225.195312 0)"/>
     <use xlink:href="#DejaVuSans-61" transform="translate(288.671875 0)"/>
     <use xlink:href="#DejaVuSans-74" transform="translate(349.951172 0)"/>
     <use xlink:href="#DejaVuSans-69" transform="translate(389.160156 0)"/>
     <use xlink:href="#DejaVuSans-61" transform="translate(416.943359 0)"/>
     <use xlink:href="#DejaVuSans-6c" transform="translate(478.222656 0)"/>
    </g>
    <!-- tokens -->
    <g transform="translate(456.972818 132.493266) scale(0.09 -0.09)">
     <defs>
      <path id="DejaVuSans-6b" d="M 581 4863
L 1159 4863
L 1159 1991
L 2875 3500
L 3609 3500
L 1753 1863
L 3688 0
L 2938 0
L 1159 1709
L 1159 0
L 581 0
L 581 4863
z
" transform="scale(0.015625)"/>
     </defs>
     <use xlink:href="#DejaVuSans-74"/>
     <use xlink:href="#DejaVuSans-6f" transform="translate(39.208984 0)"/>
     <use xlink:href="#DejaVuSans-6b" transform="translate(100.390625 0)"/>
     <use xlink:href="#DejaVuSans-65" transform="translate(154.675781 0)"/>
     <use xlink:href="#DejaVuSans-6e" transform="translate(216.199219 0)"/>
     <use xlink:href="#DejaVuSans-73" transform="translate(279.578125 0)"/>
    </g>
   </g>
   <g id="text_7">
    <g id="patch_25">
     <path d="M 534.108908 70.861828
L 605.349533 70.861828
Q 608.499533 70.861828 608.499533 67.711828
L 608.499533 48.923484
Q 608.499533 45.773484 605.349533 45.773484
L 534.108908 45.773484
Q 530.958908 45.773484 530.958908 48.923484
L 530.958908 67.711828
Q 530.958908 70.861828 534.108908 70.861828
z
" style="fill: #e7f1df; stroke: #333333; stroke-linejoin: miter"/>
    </g>
    <!-- SkillIDM / Prior / -->
    <g transform="translate(534.180627 55.762078) scale(0.09 -0.09)">
     <defs>
      <path id="DejaVuSans-49" d="M 628 4666
L 1259 4666
L 1259 0
L 628 0
L 628 4666
z
" transform="scale(0.015625)"/>
      <path id="DejaVuSans-4d" d="M 628 4666
L 1569 4666
L 2759 1491
L 3956 4666
L 4897 4666
L 4897 0
L 4281 0
L 4281 4097
L 3078 897
L 2444 897
L 1241 4097
L 1241 0
L 628 0
L 628 4666
z
" transform="scale(0.015625)"/>
     </defs>
     <use xlink:href="#DejaVuSans-53"/>
     <use xlink:href="#DejaVuSans-6b" transform="translate(63.476562 0)"/>
     <use xlink:href="#DejaVuSans-69" transform="translate(121.386719 0)"/>
     <use xlink:href="#DejaVuSans-6c" transform="translate(149.169922 0)"/>
     <use xlink:href="#DejaVuSans-6c" transform="translate(176.953125 0)"/>
     <use xlink:href="#DejaVuSans-49" transform="translate(204.736328 0)"/>
     <use xlink:href="#DejaVuSans-44" transform="translate(234.228516 0)"/>
     <use xlink:href="#DejaVuSans-4d" transform="translate(311.230469 0)"/>
     <use xlink:href="#DejaVuSans-20" transform="translate(397.509766 0)"/>
     <use xlink:href="#DejaVuSans-2f" transform="translate(429.296875 0)"/>
     <use xlink:href="#DejaVuSans-20" transform="translate(462.988281 0)"/>
     <use xlink:href="#DejaVuSans-50" transform="translate(494.775391 0)"/>
     <use xlink:href="#DejaVuSans-72" transform="translate(553.328125 0)"/>
     <use xlink:href="#DejaVuSans-69" transform="translate(594.441406 0)"/>
     <use xlink:href="#DejaVuSans-6f" transform="translate(622.224609 0)"/>
     <use xlink:href="#DejaVuSans-72" transform="translate(683.40625 0)"/>
     <use xlink:href="#DejaVuSans-20" transform="translate(724.519531 0)"/>
     <use xlink:href="#DejaVuSans-2f" transform="translate(756.306641 0)"/>
    </g>
    <!-- SkillWorldModel -->
    <g transform="translate(534.108908 65.840109) scale(0.09 -0.09)">
     <defs>
      <path id="DejaVuSans-57" d="M 213 4666
L 850 4666
L 1831 722
L 2809 4666
L 3519 4666
L 4500 722
L 5478 4666
L 6119 4666
L 4947 0
L 4153 0
L 3169 4050
L 2175 0
L 1381 0
L 213 4666
z
" transform="scale(0.015625)"/>
     </defs>
     <use xlink:href="#DejaVuSans-53"/>
     <use xlink:href="#DejaVuSans-6b" transform="translate(63.476562 0)"/>
     <use xlink:href="#DejaVuSans-69" transform="translate(121.386719 0)"/>
     <use xlink:href="#DejaVuSans-6c" transform="translate(149.169922 0)"/>
     <use xlink:href="#DejaVuSans-6c" transform="translate(176.953125 0)"/>
     <use xlink:href="#DejaVuSans-57" transform="translate(204.736328 0)"/>
     <use xlink:href="#DejaVuSans-6f" transform="translate(297.738281 0)"/>
     <use xlink:href="#DejaVuSans-72" transform="translate(358.919922 0)"/>
     <use xlink:href="#DejaVuSans-6c" transform="translate(400.033203 0)"/>
     <use xlink:href="#DejaVuSans-64" transform="translate(427.816406 0)"/>
     <use xlink:href="#DejaVuSans-4d" transform="translate(491.292969 0)"/>
     <use xlink:href="#DejaVuSans-6f" transform="translate(577.572266 0)"/>
     <use xlink:href="#DejaVuSans-64" transform="translate(638.753906 0)"/>
     <use xlink:href="#DejaVuSans-65" transform="translate(702.230469 0)"/>
     <use xlink:href="#DejaVuSans-6c" transform="translate(763.753906 0)"/>
    </g>
   </g>
   <g id="text_8">
    <g id="patch_26">
     <path d="M 540.655002 132.350813
L 598.80344 132.350813
Q 601.95344 132.350813 601.95344 129.200813
L 601.95344 120.4905
Q 601.95344 117.3405 598.80344 117.3405
L 540.655002 117.3405
Q 537.505002 117.3405 537.505002 120.4905
L 537.505002 129.200813
Q 537.505002 132.350813 540.655002 132.350813
z
" style="fill: #e7f1df; stroke: #333333; stroke-linejoin: miter"/>
    </g>
    <!-- LowLevelWM -->
    <g transform="translate(540.655002 127.329094) scale(0.09 -0.09)">
     <defs>
      <path id="DejaVuSans-4c" d="M 628 4666
L 1259 4666
L 1259 531
L 3531 531
L 3531 0
L 628 0
L 628 4666
z
" transform="scale(0.015625)"/>
      <path id="DejaVuSans-77" d="M 269 3500
L 844 3500
L 1563 769
L 2278 3500
L 2956 3500
L 3675 769
L 4391 3500
L 4966 3500
L 4050 0
L 3372 0
L 2619 2869
L 1863 0
L 1184 0
L 269 3500
z
" transform="scale(0.015625)"/>
      <path id="DejaVuSans-76" d="M 191 3500
L 800 3500
L 1894 563
L 2988 3500
L 3597 3500
L 2284 0
L 1503 0
L 191 3500
z
" transform="scale(0.015625)"/>
     </defs>
     <use xlink:href="#DejaVuSans-4c"/>
     <use xlink:href="#DejaVuSans-6f" transform="translate(53.962891 0)"/>
     <use xlink:href="#DejaVuSans-77" transform="translate(115.144531 0)"/>
     <use xlink:href="#DejaVuSans-4c" transform="translate(196.931641 0)"/>
     <use xlink:href="#DejaVuSans-65" transform="translate(250.894531 0)"/>
     <use xlink:href="#DejaVuSans-76" transform="translate(312.417969 0)"/>
     <use xlink:href="#DejaVuSans-65" transform="translate(371.597656 0)"/>
     <use xlink:href="#DejaVuSans-6c" transform="translate(433.121094 0)"/>
     <use xlink:href="#DejaVuSans-57" transform="translate(460.904297 0)"/>
     <use xlink:href="#DejaVuSans-4d" transform="translate(559.78125 0)"/>
    </g>
   </g>
   <g id="text_9">
    <g id="patch_27">
     <path d="M 254.515316 198.878813
L 317.522347 198.878813
Q 320.672347 198.878813 320.672347 195.728813
L 320.672347 187.0185
Q 320.672347 183.8685 317.522347 183.8685
L 254.515316 183.8685
Q 251.365316 183.8685 251.365316 187.0185
L 251.365316 195.728813
Q 251.365316 198.878813 254.515316 198.878813
z
" style="fill: #eef4f7; stroke: #333333; stroke-linejoin: miter"/>
    </g>
    <!-- Action chunks -->
    <g transform="translate(254.515316 193.857094) scale(0.09 -0.09)">
     <use xlink:href="#DejaVuSans-41"/>
     <use xlink:href="#DejaVuSans-63" transform="translate(66.658203 0)"/>
     <use xlink:href="#DejaVuSans-74" transform="translate(121.638672 0)"/>
     <use xlink:href="#DejaVuSans-69" transform="translate(160.847656 0)"/>
     <use xlink:href="#DejaVuSans-6f" transform="translate(188.630859 0)"/>
     <use xlink:href="#DejaVuSans-6e" transform="translate(249.8125 0)"/>
     <use xlink:href="#DejaVuSans-20" transform="translate(313.191406 0)"/>
     <use xlink:href="#DejaVuSans-63" transform="translate(344.978516 0)"/>
     <use xlink:href="#DejaVuSans-68" transform="translate(399.958984 0)"/>
     <use xlink:href="#DejaVuSans-75" transform="translate(463.337891 0)"/>
     <use xlink:href="#DejaVuSans-6e" transform="translate(526.716797 0)"/>
     <use xlink:href="#DejaVuSans-6b" transform="translate(590.095703 0)"/>
     <use xlink:href="#DejaVuSans-73" transform="translate(648.005859 0)"/>
    </g>
   </g>
   <g id="text_10">
    <g id="patch_28">
     <path d="M 332.16266 198.878813
L 425.754223 198.878813
Q 428.904223 198.878813 428.904223 195.728813
L 428.904223 187.0185
Q 428.904223 183.8685 425.754223 183.8685
L 332.16266 183.8685
Q 329.01266 183.8685 329.01266 187.0185
L 329.01266 195.728813
Q 329.01266 198.878813 332.16266 198.878813
z
" style="fill: #e7f1df; stroke: #333333; stroke-linejoin: miter"/>
    </g>
    <!-- ActionChunkEncoder -->
    <g transform="translate(332.16266 193.857094) scale(0.09 -0.09)">
     <use xlink:href="#DejaVuSans-41"/>
     <use xlink:href="#DejaVuSans-63" transform="translate(66.658203 0)"/>
     <use xlink:href="#DejaVuSans-74" transform="translate(121.638672 0)"/>
     <use xlink:href="#DejaVuSans-69" transform="translate(160.847656 0)"/>
     <use xlink:href="#DejaVuSans-6f" transform="translate(188.630859 0)"/>
     <use xlink:href="#DejaVuSans-6e" transform="translate(249.8125 0)"/>
     <use xlink:href="#DejaVuSans-43" transform="translate(313.191406 0)"/>
     <use xlink:href="#DejaVuSans-68" transform="translate(383.015625 0)"/>
     <use xlink:href="#DejaVuSans-75" transform="translate(446.394531 0)"/>
     <use xlink:href="#DejaVuSans-6e" transform="translate(509.773438 0)"/>
     <use xlink:href="#DejaVuSans-6b" transform="translate(573.152344 0)"/>
     <use xlink:href="#DejaVuSans-45" transform="translate(631.0625 0)"/>
     <use xlink:href="#DejaVuSans-6e" transform="translate(694.246094 0)"/>
     <use xlink:href="#DejaVuSans-63" transform="translate(757.625 0)"/>
     <use xlink:href="#DejaVuSans-6f" transform="translate(812.605469 0)"/>
     <use xlink:href="#DejaVuSans-64" transform="translate(873.787109 0)"/>
     <use xlink:href="#DejaVuSans-65" transform="translate(937.263672 0)"/>
     <use xlink:href="#DejaVuSans-72" transform="translate(998.787109 0)"/>
    </g>
   </g>
   <g id="text_11">
    <g id="patch_29">
     <path d="M 611.011269 70.861828
L 675.193926 70.861828
Q 678.343926 70.861828 678.343926 67.711828
L 678.343926 48.923484
Q 678.343926 45.773484 675.193926 45.773484
L 611.011269 45.773484
Q 607.861269 45.773484 607.861269 48.923484
L 607.861269 67.711828
Q 607.861269 70.861828 611.011269 70.861828
z
" style="fill: #f5e7e2; stroke: #333333; stroke-linejoin: miter"/>
    </g>
    <!-- HighLevelCEM -->
    <g transform="translate(611.011269 55.762078) scale(0.09 -0.09)">
     <use xlink:href="#DejaVuSans-48"/>
     <use xlink:href="#DejaVuSans-69" transform="translate(75.195312 0)"/>
     <use xlink:href="#DejaVuSans-67" transform="translate(102.978516 0)"/>
     <use xlink:href="#DejaVuSans-68" transform="translate(166.455078 0)"/>
     <use xlink:href="#DejaVuSans-4c" transform="translate(229.833984 0)"/>
     <use xlink:href="#DejaVuSans-65" transform="translate(283.796875 0)"/>
     <use xlink:href="#DejaVuSans-76" transform="translate(345.320312 0)"/>
     <use xlink:href="#DejaVuSans-65" transform="translate(404.5 0)"/>
     <use xlink:href="#DejaVuSans-6c" transform="translate(466.023438 0)"/>
     <use xlink:href="#DejaVuSans-43" transform="translate(493.806641 0)"/>
     <use xlink:href="#DejaVuSans-45" transform="translate(563.630859 0)"/>
     <use xlink:href="#DejaVuSans-4d" transform="translate(626.814453 0)"/>
    </g>
    <!-- subgoal z -->
    <g transform="translate(621.639707 65.840109) scale(0.09 -0.09)">
     <use xlink:href="#DejaVuSans-73"/>
     <use xlink:href="#DejaVuSans-75" transform="translate(52.099609 0)"/>
     <use xlink:href="#DejaVuSans-62" transform="translate(115.478516 0)"/>
     <use xlink:href="#DejaVuSans-67" transform="translate(178.955078 0)"/>
     <use xlink:href="#DejaVuSans-6f" transform="translate(242.431641 0)"/>
     <use xlink:href="#DejaVuSans-61" transform="translate(303.613281 0)"/>
     <use xlink:href="#DejaVuSans-6c" transform="translate(364.892578 0)"/>
     <use xlink:href="#DejaVuSans-20" transform="translate(392.675781 0)"/>
     <use xlink:href="#DejaVuSans-7a" transform="translate(424.462891 0)"/>
    </g>
   </g>
   <g id="text_12">
    <g id="patch_30">
     <path d="M 621.219238 137.389828
L 664.985957 137.389828
Q 668.135957 137.389828 668.135957 134.239828
L 668.135957 115.451484
Q 668.135957 112.301484 664.985957 112.301484
L 621.219238 112.301484
Q 618.069238 112.301484 618.069238 115.451484
L 618.069238 134.239828
Q 618.069238 137.389828 621.219238 137.389828
z
" style="fill: #f5e7e2; stroke: #333333; stroke-linejoin: miter"/>
    </g>
    <!-- Train-split -->
    <g transform="translate(621.219238 122.290078) scale(0.09 -0.09)">
     <use xlink:href="#DejaVuSans-54"/>
     <use xlink:href="#DejaVuSans-72" transform="translate(46.333984 0)"/>
     <use xlink:href="#DejaVuSans-61" transform="translate(87.447266 0)"/>
     <use xlink:href="#DejaVuSans-69" transform="translate(148.726562 0)"/>
     <use xlink:href="#DejaVuSans-6e" transform="translate(176.509766 0)"/>
     <use xlink:href="#DejaVuSans-2d" transform="translate(239.888672 0)"/>
     <use xlink:href="#DejaVuSans-73" transform="translate(275.972656 0)"/>
     <use xlink:href="#DejaVuSans-70" transform="translate(328.072266 0)"/>
     <use xlink:href="#DejaVuSans-6c" transform="translate(391.548828 0)"/>
     <use xlink:href="#DejaVuSans-69" transform="translate(419.332031 0)"/>
     <use xlink:href="#DejaVuSans-74" transform="translate(447.115234 0)"/>
    </g>
    <!-- nearest s -->
    <g transform="translate(622.323847 132.368109) scale(0.09 -0.09)">
     <use xlink:href="#DejaVuSans-6e"/>
     <use xlink:href="#DejaVuSans-65" transform="translate(63.378906 0)"/>
     <use xlink:href="#DejaVuSans-61" transform="translate(124.902344 0)"/>
     <use xlink:href="#DejaVuSans-72" transform="translate(186.181641 0)"/>
     <use xlink:href="#DejaVuSans-65" transform="translate(225.044922 0)"/>
     <use xlink:href="#DejaVuSans-73" transform="translate(286.568359 0)"/>
     <use xlink:href="#DejaVuSans-74" transform="translate(338.667969 0)"/>
     <use xlink:href="#DejaVuSans-20" transform="translate(377.876953 0)"/>
     <use xlink:href="#DejaVuSans-73" transform="translate(409.664062 0)"/>
    </g>
   </g>
   <g id="text_13">
    <g id="patch_31">
     <path d="M 539.118674 203.917828
L 600.339768 203.917828
Q 603.489768 203.917828 603.489768 200.767828
L 603.489768 181.979484
Q 603.489768 178.829484 600.339768 178.829484
L 539.118674 178.829484
Q 535.968674 178.829484 535.968674 181.979484
L 535.968674 200.767828
Q 535.968674 203.917828 539.118674 203.917828
z
" style="fill: #f5e7e2; stroke: #333333; stroke-linejoin: miter"/>
    </g>
    <!-- LowLevelCEM -->
    <g transform="translate(539.118674 188.818078) scale(0.09 -0.09)">
     <use xlink:href="#DejaVuSans-4c"/>
     <use xlink:href="#DejaVuSans-6f" transform="translate(53.962891 0)"/>
     <use xlink:href="#DejaVuSans-77" transform="translate(115.144531 0)"/>
     <use xlink:href="#DejaVuSans-4c" transform="translate(196.931641 0)"/>
     <use xlink:href="#DejaVuSans-65" transform="translate(250.894531 0)"/>
     <use xlink:href="#DejaVuSans-76" transform="translate(312.417969 0)"/>
     <use xlink:href="#DejaVuSans-65" transform="translate(371.597656 0)"/>
     <use xlink:href="#DejaVuSans-6c" transform="translate(433.121094 0)"/>
     <use xlink:href="#DejaVuSans-43" transform="translate(460.904297 0)"/>
     <use xlink:href="#DejaVuSans-45" transform="translate(530.728516 0)"/>
     <use xlink:href="#DejaVuSans-4d" transform="translate(593.912109 0)"/>
    </g>
    <!-- actions -->
    <g transform="translate(553.53344 198.896109) scale(0.09 -0.09)">
     <use xlink:href="#DejaVuSans-61"/>
     <use xlink:href="#DejaVuSans-63" transform="translate(61.279297 0)"/>
     <use xlink:href="#DejaVuSans-74" transform="translate(116.259766 0)"/>
     <use xlink:href="#DejaVuSans-69" transform="translate(155.46875 0)"/>
     <use xlink:href="#DejaVuSans-6f" transform="translate(183.251953 0)"/>
     <use xlink:href="#DejaVuSans-6e" transform="translate(244.433594 0)"/>
     <use xlink:href="#DejaVuSans-73" transform="translate(307.8125 0)"/>
    </g>
   </g>
   <g id="text_14">
    <g id="patch_32">
     <path d="M 343.49141 275.989828
L 414.425473 275.989828
Q 417.575473 275.989828 417.575473 272.839828
L 417.575473 254.051484
Q 417.575473 250.901484 414.425473 250.901484
L 343.49141 250.901484
Q 340.34141 250.901484 340.34141 254.051484
L 340.34141 272.839828
Q 340.34141 275.989828 343.49141 275.989828
z
" style="fill: #e8e7f4; stroke: #333333; stroke-linejoin: miter"/>
    </g>
    <!-- PushTEnv -->
    <g transform="translate(357.168598 260.890078) scale(0.09 -0.09)">
     <use xlink:href="#DejaVuSans-50"/>
     <use xlink:href="#DejaVuSans-75" transform="translate(58.552734 0)"/>
     <use xlink:href="#DejaVuSans-73" transform="translate(121.931641 0)"/>
     <use xlink:href="#DejaVuSans-68" transform="translate(174.03125 0)"/>
     <use xlink:href="#DejaVuSans-54" transform="translate(237.410156 0)"/>
     <use xlink:href="#DejaVuSans-45" transform="translate(298.494141 0)"/>
     <use xlink:href="#DejaVuSans-6e" transform="translate(361.677734 0)"/>
     <use xlink:href="#DejaVuSans-76" transform="translate(425.056641 0)"/>
    </g>
    <!-- execute actions -->
    <g transform="translate(343.49141 270.968109) scale(0.09 -0.09)">
     <use xlink:href="#DejaVuSans-65"/>
     <use xlink:href="#DejaVuSans-78" transform="translate(59.773438 0)"/>
     <use xlink:href="#DejaVuSans-65" transform="translate(115.828125 0)"/>
     <use xlink:href="#DejaVuSans-63" transform="translate(177.351562 0)"/>
     <use xlink:href="#DejaVuSans-75" transform="translate(232.332031 0)"/>
     <use xlink:href="#DejaVuSans-74" transform="translate(295.710938 0)"/>
     <use xlink:href="#DejaVuSans-65" transform="translate(334.919922 0)"/>
     <use xlink:href="#DejaVuSans-20" transform="translate(396.443359 0)"/>
     <use xlink:href="#DejaVuSans-61" transform="translate(428.230469 0)"/>
     <use xlink:href="#DejaVuSans-63" transform="translate(489.509766 0)"/>
     <use xlink:href="#DejaVuSans-74" transform="translate(544.490234 0)"/>
     <use xlink:href="#DejaVuSans-69" transform="translate(583.699219 0)"/>
     <use xlink:href="#DejaVuSans-6f" transform="translate(611.482422 0)"/>
     <use xlink:href="#DejaVuSans-6e" transform="translate(672.664062 0)"/>
     <use xlink:href="#DejaVuSans-73" transform="translate(736.042969 0)"/>
    </g>
   </g>
   <g id="text_15">
    <g id="patch_33">
     <path d="M 155.065553 275.989828
L 221.309772 275.989828
Q 224.459772 275.989828 224.459772 272.839828
L 224.459772 254.051484
Q 224.459772 250.901484 221.309772 250.901484
L 155.065553 250.901484
Q 151.915553 250.901484 151.915553 254.051484
L 151.915553 272.839828
Q 151.915553 275.989828 155.065553 275.989828
z
" style="fill: #e8e7f4; stroke: #333333; stroke-linejoin: miter"/>
    </g>
    <!-- Live visual obs -->
    <g transform="translate(155.065553 260.890078) scale(0.09 -0.09)">
     <use xlink:href="#DejaVuSans-4c"/>
     <use xlink:href="#DejaVuSans-69" transform="translate(55.712891 0)"/>
     <use xlink:href="#DejaVuSans-76" transform="translate(83.496094 0)"/>
     <use xlink:href="#DejaVuSans-65" transform="translate(142.675781 0)"/>
     <use xlink:href="#DejaVuSans-20" transform="translate(204.199219 0)"/>
     <use xlink:href="#DejaVuSans-76" transform="translate(235.986328 0)"/>
     <use xlink:href="#DejaVuSans-69" transform="translate(295.166016 0)"/>
     <use xlink:href="#DejaVuSans-73" transform="translate(322.949219 0)"/>
     <use xlink:href="#DejaVuSans-75" transform="translate(375.048828 0)"/>
     <use xlink:href="#DejaVuSans-61" transform="translate(438.427734 0)"/>
     <use xlink:href="#DejaVuSans-6c" transform="translate(499.707031 0)"/>
     <use xlink:href="#DejaVuSans-20" transform="translate(527.490234 0)"/>
     <use xlink:href="#DejaVuSans-6f" transform="translate(559.277344 0)"/>
     <use xlink:href="#DejaVuSans-62" transform="translate(620.458984 0)"/>
     <use xlink:href="#DejaVuSans-73" transform="translate(683.935547 0)"/>
    </g>
    <!-- re-encode -->
    <g transform="translate(165.57235 270.968109) scale(0.09 -0.09)">
     <use xlink:href="#DejaVuSans-72"/>
     <use xlink:href="#DejaVuSans-65" transform="translate(38.863281 0)"/>
     <use xlink:href="#DejaVuSans-2d" transform="translate(100.386719 0)"/>
     <use xlink:href="#DejaVuSans-65" transform="translate(136.470703 0)"/>
     <use xlink:href="#DejaVuSans-6e" transform="translate(197.994141 0)"/>
     <use xlink:href="#DejaVuSans-63" transform="translate(261.373047 0)"/>
     <use xlink:href="#DejaVuSans-6f" transform="translate(316.353516 0)"/>
     <use xlink:href="#DejaVuSans-64" transform="translate(377.535156 0)"/>
     <use xlink:href="#DejaVuSans-65" transform="translate(441.011719 0)"/>
    </g>
   </g>
   <g id="text_16">
    <!-- Skill-JEPA-WM Push-T Model Pipeline -->
    <g transform="translate(249.691406 18.597656) scale(0.15 -0.15)">
     <use xlink:href="#DejaVuSans-53"/>
     <use xlink:href="#DejaVuSans-6b" transform="translate(63.476562 0)"/>
     <use xlink:href="#DejaVuSans-69" transform="translate(121.386719 0)"/>
     <use xlink:href="#DejaVuSans-6c" transform="translate(149.169922 0)"/>
     <use xlink:href="#DejaVuSans-6c" transform="translate(176.953125 0)"/>
     <use xlink:href="#DejaVuSans-2d" transform="translate(204.736328 0)"/>
     <use xlink:href="#DejaVuSans-4a" transform="translate(246.445312 0)"/>
     <use xlink:href="#DejaVuSans-45" transform="translate(275.9375 0)"/>
     <use xlink:href="#DejaVuSans-50" transform="translate(339.121094 0)"/>
     <use xlink:href="#DejaVuSans-41" transform="translate(393.048828 0)"/>
     <use xlink:href="#DejaVuSans-2d" transform="translate(459.207031 0)"/>
     <use xlink:href="#DejaVuSans-57" transform="translate(491.291016 0)"/>
     <use xlink:href="#DejaVuSans-4d" transform="translate(590.167969 0)"/>
     <use xlink:href="#DejaVuSans-20" transform="translate(676.447266 0)"/>
     <use xlink:href="#DejaVuSans-50" transform="translate(708.234375 0)"/>
     <use xlink:href="#DejaVuSans-75" transform="translate(766.787109 0)"/>
     <use xlink:href="#DejaVuSans-73" transform="translate(830.166016 0)"/>
     <use xlink:href="#DejaVuSans-68" transform="translate(882.265625 0)"/>
     <use xlink:href="#DejaVuSans-2d" transform="translate(945.644531 0)"/>
     <use xlink:href="#DejaVuSans-54" transform="translate(972.603516 0)"/>
     <use xlink:href="#DejaVuSans-20" transform="translate(1033.6875 0)"/>
     <use xlink:href="#DejaVuSans-4d" transform="translate(1065.474609 0)"/>
     <use xlink:href="#DejaVuSans-6f" transform="translate(1151.753906 0)"/>
     <use xlink:href="#DejaVuSans-64" transform="translate(1212.935547 0)"/>
     <use xlink:href="#DejaVuSans-65" transform="translate(1276.412109 0)"/>
     <use xlink:href="#DejaVuSans-6c" transform="translate(1337.935547 0)"/>
     <use xlink:href="#DejaVuSans-20" transform="translate(1365.71875 0)"/>
     <use xlink:href="#DejaVuSans-50" transform="translate(1397.505859 0)"/>
     <use xlink:href="#DejaVuSans-69" transform="translate(1455.558594 0)"/>
     <use xlink:href="#DejaVuSans-70" transform="translate(1483.341797 0)"/>
     <use xlink:href="#DejaVuSans-65" transform="translate(1546.818359 0)"/>
     <use xlink:href="#DejaVuSans-6c" transform="translate(1608.341797 0)"/>
     <use xlink:href="#DejaVuSans-69" transform="translate(1636.125 0)"/>
     <use xlink:href="#DejaVuSans-6e" transform="translate(1663.908203 0)"/>
     <use xlink:href="#DejaVuSans-65" transform="translate(1727.287109 0)"/>
    </g>
   </g>
  </g>
 </g>
 <defs>
  <clipPath id="p2615edcb1a">
   <rect x="7.2" y="30.597656" width="753.3" height="410.256"/>
  </clipPath>
 </defs>
</svg>
